<?xml version="1.0" encoding="UTF-8" standalone="no"?>
<!DOCTYPE svg PUBLIC "-//W3C//DTD SVG 1.1//EN" "http://www.w3.org/Graphics/SVG/1.1/DTD/svg11.dtd">
<svg width="100%" height="100%" viewBox="0 0 584 357" version="1.1" xmlns="http://www.w3.org/2000/svg" xmlns:xlink="http://www.w3.org/1999/xlink" xml:space="preserve" xmlns:serif="http://www.serif.com/" style="fill-rule:evenodd;clip-rule:evenodd;stroke-linejoin:round;stroke-miterlimit:2;">
    <g id="Artboard1" transform="matrix(0.994255,0,0,1.00539,-0.566442,-0.651169)">
        <rect x="0.57" y="0.648" width="587.132" height="354.504" style="fill:none;"/>
        <clipPath id="_clip1">
            <rect x="0.57" y="0.648" width="587.132" height="354.504"/>
        </clipPath>
        <g clip-path="url(#_clip1)">
            <g transform="matrix(0.89196,0,0,0.882079,-133.093,-297.599)">
                <path d="M296.844,342.297L804.635,370.536L791.484,607.01L283.698,578.771L296.844,342.297" style="fill-opacity:0.6;fill-rule:nonzero;"/>
            </g>
            <g transform="matrix(0.89196,0,0,0.882079,120.278,167.917)">
                <g>
                    <path d="M17.5,-159.354C17.609,-161.49 18.651,-162.505 20.625,-162.396L62.25,-160.083C64.234,-159.969 65.172,-158.844 65.063,-156.708L64.438,-145.625C64.365,-144.318 64.13,-143.094 63.729,-141.958C62.74,-139.052 60.469,-132.302 56.917,-121.708C53.359,-111.125 48.958,-97.083 43.708,-79.583C39.01,-63.552 35.271,-50.38 32.479,-40.062C29.698,-29.755 27.781,-22.656 26.729,-18.771C26.521,-17.797 26.677,-16.922 27.208,-16.146C27.734,-15.38 28.49,-14.969 29.479,-14.917L51.396,-13.687C53.531,-13.573 54.542,-12.448 54.417,-10.312L53.875,-0.479C53.76,1.656 52.635,2.672 50.5,2.563L9.125,0.25C7,0.135 5.99,-0.984 6.104,-3.125L6.729,-14.208C6.797,-15.51 7.031,-16.734 7.438,-17.875C8.396,-20.776 10.651,-27.521 14.208,-38.104C17.776,-48.698 22.188,-62.833 27.438,-80.5C32.281,-96.526 36.104,-109.651 38.896,-119.875C41.688,-130.094 43.521,-137.156 44.396,-141.062C44.781,-142.021 44.667,-142.885 44.042,-143.667C43.427,-144.458 42.63,-144.88 41.646,-144.937L19.729,-146.146C17.755,-146.255 16.823,-147.38 16.938,-149.521L17.5,-159.354Z" style="fill:white;fill-rule:nonzero;"/>
                </g>
            </g>
            <g transform="matrix(0.89196,0,0,0.882079,171.454,170.732)">
                <g>
                    <path d="M48.229,-160.854C52.49,-160.615 55.906,-159.193 58.479,-156.583C61.047,-153.969 62.844,-150.781 63.875,-147.021C64.917,-143.255 65.344,-139.734 65.167,-136.458L59.479,-83.417C59.297,-80.125 58.484,-76.667 57.042,-73.042C55.609,-69.417 53.469,-66.443 50.625,-64.125C47.776,-61.818 44.214,-60.781 39.938,-61.021L30.354,-61.542C28.214,-61.667 27.167,-60.656 27.208,-58.521L24.813,-2.083C24.698,0.052 23.656,1.068 21.688,0.958L9.125,0.25C7,0.135 5.99,-0.984 6.104,-3.125C6.521,-7.542 7.255,-16.344 8.313,-29.542C9.365,-42.75 10.484,-60.026 11.667,-81.375C12.859,-102.708 13.656,-119.948 14.063,-133.104C14.479,-146.271 14.729,-155.068 14.813,-159.5C14.922,-161.635 16.042,-162.651 18.167,-162.542L48.229,-160.854ZM43.354,-86.5L46.063,-135.292C46.104,-136.109 46.083,-137.26 46,-138.75C45.917,-140.234 45.333,-141.625 44.25,-142.917C43.177,-144.219 41.333,-144.948 38.708,-145.104L35.75,-145.25C33.609,-145.375 32.484,-144.448 32.375,-142.479L27.979,-81.208C27.865,-79.068 28.88,-77.937 31.021,-77.812L34.958,-77.604C37.583,-77.448 39.5,-77.958 40.708,-79.125C41.917,-80.302 42.646,-81.667 42.896,-83.208C43.156,-84.75 43.313,-85.844 43.354,-86.5Z" style="fill:white;fill-rule:nonzero;"/>
                </g>
            </g>
            <g transform="matrix(0.89196,0,0,0.882079,223.728,173.606)">
                <g>
                    <path d="M52.438,-76.875C55.089,-74.26 56.927,-71.073 57.958,-67.312C59,-63.547 59.422,-59.943 59.229,-56.5L57.583,-0.021C57.458,2.115 56.323,3.13 54.188,3.021L41.125,2.292C38.984,2.167 37.979,1.031 38.104,-1.104L41.958,-61.646C42.01,-62.464 41.99,-63.615 41.896,-65.104C41.813,-66.604 41.234,-68.042 40.167,-69.417C39.094,-70.792 37.25,-71.552 34.625,-71.708L30.938,-71.896C28.797,-72.021 27.667,-71.01 27.542,-68.875L24.813,-1.833C24.688,0.302 23.635,1.318 21.667,1.208L9.104,0.5C6.979,0.385 5.979,-0.734 6.104,-2.875C6.505,-7.302 7.234,-16.115 8.292,-29.312C9.344,-42.505 10.469,-59.776 11.667,-81.125C12.844,-102.469 13.635,-119.719 14.042,-132.875C14.458,-146.042 14.708,-154.833 14.792,-159.25C14.901,-161.385 16.021,-162.401 18.146,-162.292L48.208,-160.604C52.469,-160.365 55.885,-158.943 58.458,-156.333C61.042,-153.719 62.844,-150.531 63.875,-146.771C64.901,-143.005 65.323,-139.484 65.146,-136.208L61.646,-100.083C61.464,-96.635 60.651,-93.104 59.208,-89.479C57.76,-85.854 55.583,-82.969 52.667,-80.833C51.958,-80.193 51.583,-79.505 51.542,-78.771C51.5,-78.031 51.797,-77.401 52.438,-76.875ZM46.042,-135.042C46.083,-135.693 46.063,-136.802 45.979,-138.375C45.896,-139.943 45.313,-141.375 44.229,-142.667C43.156,-143.969 41.313,-144.698 38.688,-144.854L35.729,-145C33.589,-145.125 32.464,-144.115 32.354,-141.979L28.813,-91.542C28.688,-89.401 29.693,-88.271 31.833,-88.146L35.521,-87.958C38.146,-87.802 40.063,-88.312 41.271,-89.479C42.49,-90.646 43.229,-91.958 43.479,-93.417C43.729,-94.885 43.875,-96.042 43.917,-96.875L46.042,-135.042Z" style="fill:white;fill-rule:nonzero;"/>
                </g>
            </g>
            <g transform="matrix(0.89196,0,0,0.882079,276.002,176.481)">
                <g>
                    <path d="M45.333,2.521C43.344,2.406 42.333,1.359 42.292,-0.625C42.276,-3.401 42.313,-7.797 42.396,-13.812C42.479,-19.823 42.484,-26.531 42.417,-33.937C42.359,-36.089 41.344,-37.219 39.375,-37.333L30.021,-37.854C28.047,-37.964 26.922,-36.948 26.646,-34.812C25.896,-27.464 25.188,-20.797 24.521,-14.812C23.865,-8.823 23.38,-4.448 23.063,-1.687C22.948,0.281 21.917,1.214 19.958,1.104L6.896,0.375C5.906,0.318 5.109,-0.094 4.5,-0.875C3.885,-1.651 3.688,-2.443 3.896,-3.25C4.589,-6.984 5.573,-12.937 6.854,-21.104C8.13,-29.271 9.552,-38.542 11.125,-48.917C12.693,-59.292 14.177,-69.781 15.583,-80.396C17,-91.031 18.339,-101.75 19.604,-112.542C20.865,-123.344 21.896,-132.922 22.688,-141.271C23.479,-149.63 24.052,-155.531 24.417,-158.979C24.693,-161.104 25.818,-162.109 27.792,-162L55.625,-160.458C57.583,-160.344 58.505,-159.219 58.396,-157.083C58.365,-153.625 58.323,-147.693 58.271,-139.292C58.214,-130.901 58.172,-121.271 58.146,-110.396C58.115,-99.531 58.214,-88.74 58.438,-78.021C58.672,-67.312 58.99,-56.714 59.396,-46.229C59.797,-35.74 60.214,-26.365 60.646,-18.104C61.089,-9.854 61.375,-3.833 61.5,-0.042C61.625,0.776 61.339,1.542 60.646,2.25C59.948,2.958 59.193,3.292 58.375,3.25L45.333,2.521ZM32.438,-54.771L39.083,-54.396C41.219,-54.271 42.354,-55.276 42.479,-57.417C42.365,-61.542 42.297,-65.615 42.271,-69.646C42.255,-73.687 42.276,-77.687 42.333,-81.646C42.318,-90.365 42.25,-100.292 42.125,-111.417C42,-122.542 41.875,-132.88 41.75,-142.437C41.792,-143.255 41.401,-143.687 40.583,-143.729C39.776,-143.781 39.354,-143.401 39.313,-142.583C38.115,-133.094 36.88,-122.823 35.604,-111.771C34.339,-100.729 33.13,-90.88 31.979,-82.229C31.604,-78.281 31.177,-74.302 30.708,-70.292C30.234,-66.292 29.802,-62.24 29.417,-58.146C29.125,-56.021 30.13,-54.896 32.438,-54.771Z" style="fill:white;fill-rule:nonzero;"/>
                </g>
            </g>
            <g transform="matrix(0.89196,0,0,0.882079,330.033,179.452)">
                <g>
                    <path d="M37.271,-78.979C39.922,-100.406 41.901,-117.714 43.208,-130.896C44.526,-144.073 45.385,-152.792 45.792,-157.042C45.901,-159.177 47.026,-160.193 49.167,-160.083L61.479,-159.396C62.464,-159.339 63.219,-158.922 63.75,-158.146C64.292,-157.365 64.542,-156.568 64.5,-155.75C63.75,-151.177 62.385,-142.359 60.417,-129.292C58.458,-116.234 56.234,-99.156 53.75,-78.062C51.052,-56.604 49.063,-39.281 47.771,-26.104C46.479,-12.922 45.63,-4.208 45.229,0.042C45.104,2.177 43.969,3.193 41.833,3.083L17.458,1.729C15.318,1.604 14.313,0.469 14.438,-1.667C14.505,-5.943 14.615,-14.698 14.771,-27.937C14.922,-41.187 14.859,-58.615 14.583,-80.229C14.443,-101.479 14.125,-118.698 13.625,-131.896C13.135,-145.104 12.776,-154.021 12.542,-158.646C12.417,-159.479 12.698,-160.25 13.396,-160.958C14.089,-161.667 14.927,-161.99 15.917,-161.937L28.25,-161.25C30.359,-161.125 31.359,-159.99 31.25,-157.854C31.177,-153.589 31.063,-144.833 30.896,-131.583C30.74,-118.333 30.813,-100.906 31.104,-79.312L30.667,-36.104C30.625,-35.437 30.927,-35.083 31.583,-35.042C32.25,-35.01 32.688,-35.323 32.896,-35.979L37.271,-78.979Z" style="fill:white;fill-rule:nonzero;"/>
                </g>
            </g>
            <g transform="matrix(0.89196,0,0,0.882079,378.573,182.122)">
                <g>
                    <path d="M59.208,-78.729L59.208,-78.479C59.01,-75.021 58.859,-70.042 58.75,-63.542C58.635,-57.052 58.505,-50.229 58.354,-43.062C58.214,-35.906 57.984,-29.464 57.667,-23.729C57.193,-15.354 54.969,-8.76 51,-3.958C47.026,0.844 40.359,2.99 31,2.479C21.635,1.948 15.25,-0.917 11.833,-6.125C8.417,-11.344 6.943,-18.146 7.417,-26.521C7.734,-32.255 8.214,-38.687 8.854,-45.812C9.505,-52.948 10.13,-59.75 10.729,-66.208C11.323,-72.677 11.719,-77.646 11.917,-81.104L11.917,-81.354C12.109,-84.797 12.271,-89.771 12.396,-96.271C12.521,-102.771 12.656,-109.635 12.813,-116.875C12.964,-124.109 13.193,-130.521 13.5,-136.104C13.969,-144.479 16.193,-151.109 20.167,-156C24.135,-160.885 30.802,-163.068 40.167,-162.542C49.526,-162.026 55.917,-159.115 59.333,-153.812C62.75,-148.521 64.219,-141.687 63.75,-133.312C63.443,-127.729 62.964,-121.333 62.313,-114.125C61.656,-106.917 61.026,-100.073 60.417,-93.604C59.802,-87.13 59.401,-82.172 59.208,-78.729ZM39.792,-22.729C39.818,-23.062 39.943,-25.276 40.167,-29.375C40.401,-33.484 40.698,-38.865 41.063,-45.521C41.438,-52.172 41.839,-59.437 42.271,-67.312C42.714,-75.187 43.151,-83.062 43.583,-90.937C44.026,-98.823 44.427,-106.052 44.792,-112.625C45.167,-119.193 45.458,-124.443 45.667,-128.375C45.885,-132.318 46,-134.292 46,-134.292C46,-134.292 46.005,-134.417 46.021,-134.667C46.031,-134.917 46.063,-135.448 46.104,-136.271C46.271,-139.047 45.984,-141.323 45.25,-143.104C44.526,-144.88 42.531,-145.943 39.271,-146.292C35.964,-146.302 33.854,-145.469 32.938,-143.792C32.031,-142.109 31.5,-139.88 31.333,-137.104C31.333,-136.937 31.214,-134.755 30.979,-130.562C30.74,-126.38 30.438,-120.964 30.063,-114.312C29.698,-107.656 29.297,-100.396 28.854,-92.521C28.422,-84.646 27.984,-76.802 27.542,-69C27.109,-61.208 26.714,-54.026 26.354,-47.458C25.99,-40.885 25.698,-35.589 25.479,-31.562C25.255,-27.547 25.146,-25.542 25.146,-25.542C25.146,-25.542 25.135,-25.417 25.125,-25.167C25.109,-24.917 25.073,-24.38 25.021,-23.562C24.88,-20.922 25.167,-18.677 25.875,-16.833C26.594,-14.984 28.604,-13.969 31.896,-13.792C35.172,-13.609 37.271,-14.396 38.188,-16.146C39.115,-17.896 39.651,-20.089 39.792,-22.729Z" style="fill:white;fill-rule:nonzero;"/>
                </g>
            </g>
            <g transform="matrix(0.89196,0,0,0.882079,429.749,184.936)">
                <g>
                    <path d="M40.125,-161.562C46.359,-161.214 51.25,-159.583 54.792,-156.667C58.333,-153.75 60.76,-150.109 62.083,-145.75C63.417,-141.401 63.948,-136.927 63.688,-132.333C63.688,-132.333 63.563,-130.818 63.313,-127.792C63.063,-124.76 62.719,-120.948 62.292,-116.354C61.875,-111.771 61.443,-106.937 61,-101.854C60.552,-96.771 60.172,-92.135 59.854,-87.958C59.531,-83.776 59.318,-80.698 59.208,-78.729C59.094,-76.589 58.964,-73.422 58.813,-69.229C58.656,-65.031 58.526,-60.427 58.417,-55.417C58.302,-50.401 58.198,-45.547 58.104,-40.854C58.021,-36.172 57.938,-32.354 57.854,-29.396C57.771,-26.437 57.729,-24.958 57.729,-24.958C57.479,-20.344 56.448,-15.948 54.646,-11.771C52.839,-7.604 50.01,-4.26 46.167,-1.75C42.333,0.75 37.297,1.823 31.063,1.479L9.125,0.25C7,0.135 5.99,-0.984 6.104,-3.125C6.521,-7.542 7.255,-16.344 8.313,-29.542C9.365,-42.75 10.484,-60.026 11.667,-81.375C12.859,-102.708 13.656,-119.99 14.063,-133.229C14.479,-146.479 14.729,-155.234 14.813,-159.5C14.938,-161.802 16.063,-162.901 18.188,-162.792L40.125,-161.562ZM39.625,-23.979C39.625,-24.146 39.734,-26.276 39.958,-30.375C40.193,-34.484 40.49,-39.823 40.854,-46.396C41.229,-52.964 41.63,-60.146 42.063,-67.937C42.49,-75.74 42.922,-83.542 43.354,-91.333C43.797,-99.135 44.198,-106.323 44.563,-112.896C44.922,-119.464 45.214,-124.755 45.438,-128.771C45.656,-132.797 45.781,-134.979 45.813,-135.312C45.896,-136.948 45.714,-138.937 45.271,-141.271C44.823,-143.604 42.802,-144.865 39.208,-145.062L35.75,-145.25C33.609,-145.375 32.484,-144.448 32.375,-142.479L27.938,-80.479L25.479,-18.354C25.365,-16.38 26.38,-15.333 28.521,-15.208L31.979,-15.021C35.573,-14.823 37.719,-15.859 38.417,-18.125C39.125,-20.385 39.526,-22.339 39.625,-23.979Z" style="fill:white;fill-rule:nonzero;"/>
                </g>
            </g>
            <g transform="matrix(0.89196,0,0,0.882079,480.705,187.738)">
                <g>
                    <path d="M45.333,2.521C43.344,2.406 42.333,1.359 42.292,-0.625C42.276,-3.401 42.313,-7.797 42.396,-13.812C42.479,-19.823 42.484,-26.531 42.417,-33.937C42.359,-36.089 41.344,-37.219 39.375,-37.333L30.021,-37.854C28.047,-37.964 26.922,-36.948 26.646,-34.812C25.896,-27.464 25.188,-20.797 24.521,-14.812C23.865,-8.823 23.38,-4.448 23.063,-1.687C22.948,0.281 21.917,1.214 19.958,1.104L6.896,0.375C5.906,0.318 5.109,-0.094 4.5,-0.875C3.885,-1.651 3.688,-2.443 3.896,-3.25C4.589,-6.984 5.573,-12.937 6.854,-21.104C8.13,-29.271 9.552,-38.542 11.125,-48.917C12.693,-59.292 14.177,-69.781 15.583,-80.396C17,-91.031 18.339,-101.75 19.604,-112.542C20.865,-123.344 21.896,-132.922 22.688,-141.271C23.479,-149.63 24.052,-155.531 24.417,-158.979C24.693,-161.104 25.818,-162.109 27.792,-162L55.625,-160.458C57.583,-160.344 58.505,-159.219 58.396,-157.083C58.365,-153.625 58.323,-147.693 58.271,-139.292C58.214,-130.901 58.172,-121.271 58.146,-110.396C58.115,-99.531 58.214,-88.74 58.438,-78.021C58.672,-67.312 58.99,-56.714 59.396,-46.229C59.797,-35.74 60.214,-26.365 60.646,-18.104C61.089,-9.854 61.375,-3.833 61.5,-0.042C61.625,0.776 61.339,1.542 60.646,2.25C59.948,2.958 59.193,3.292 58.375,3.25L45.333,2.521ZM32.438,-54.771L39.083,-54.396C41.219,-54.271 42.354,-55.276 42.479,-57.417C42.365,-61.542 42.297,-65.615 42.271,-69.646C42.255,-73.687 42.276,-77.687 42.333,-81.646C42.318,-90.365 42.25,-100.292 42.125,-111.417C42,-122.542 41.875,-132.88 41.75,-142.437C41.792,-143.255 41.401,-143.687 40.583,-143.729C39.776,-143.781 39.354,-143.401 39.313,-142.583C38.115,-133.094 36.88,-122.823 35.604,-111.771C34.339,-100.729 33.13,-90.88 31.979,-82.229C31.604,-78.281 31.177,-74.302 30.708,-70.292C30.234,-66.292 29.802,-62.24 29.417,-58.146C29.125,-56.021 30.13,-54.896 32.438,-54.771Z" style="fill:white;fill-rule:nonzero;"/>
                </g>
            </g>
            <g transform="matrix(0.89196,0,0,0.882079,534.736,190.71)">
                <g>
                    <path d="M35.146,-161.333L47.708,-160.646C49.844,-160.521 50.859,-159.385 50.75,-157.25C50.25,-151.359 49.214,-137.26 47.646,-114.958C46.073,-92.651 44.255,-62.859 42.188,-25.583C41.938,-20.969 41.031,-16.568 39.479,-12.375C37.922,-8.177 35.344,-4.823 31.75,-2.312C28.151,0.198 23.234,1.281 17,0.938L9.104,0.5C6.979,0.385 5.979,-0.734 6.104,-2.875L6.646,-12.958C6.755,-14.927 7.875,-15.859 10,-15.75L17.896,-15.312C21.49,-15.104 23.688,-16.172 24.479,-18.521C25.271,-20.865 25.714,-22.859 25.813,-24.5C25.854,-25.167 25.88,-25.656 25.896,-25.979C25.906,-26.312 25.917,-26.479 25.917,-26.479C27.984,-63.755 29.438,-93.568 30.271,-115.917C31.104,-138.26 31.688,-152.385 32.021,-158.292C31.964,-160.443 33.005,-161.458 35.146,-161.333Z" style="fill:white;fill-rule:nonzero;"/>
                </g>
            </g>
            <g transform="matrix(0.89196,0,0,0.882079,-133.093,-297.599)">
                <path d="M454.276,519.224L689.99,489.771L724.208,763.646L488.495,793.094L454.276,519.224" style="fill:white;fill-opacity:0.64;fill-rule:nonzero;"/>
            </g>
            <g transform="matrix(0.89196,0,0,0.882079,307.398,352.492)">
                <g>
                    <path d="M21.917,-90.437C27.318,-88.146 30.438,-83.672 31.271,-77.021L37.854,-24.396C38.63,-18.13 37.531,-13.125 34.563,-9.375C31.604,-5.635 27.193,-3.401 21.333,-2.667L4,-0.5L-16.458,-164.208L0.667,-166.354C6.526,-167.073 11.359,-165.984 15.167,-163.083C18.969,-160.193 21.26,-155.625 22.042,-149.375L27.542,-105.312C28.344,-98.922 26.469,-93.964 21.917,-90.437ZM-1.313,-153.146L5.979,-94.708L9.563,-95.167C11.156,-95.359 12.354,-96.083 13.146,-97.333C13.938,-98.583 14.198,-100.271 13.938,-102.396L8.25,-147.854C8,-149.854 7.339,-151.359 6.271,-152.375C5.198,-153.385 3.865,-153.797 2.271,-153.604L-1.313,-153.146ZM17.375,-76.5C17.109,-78.609 16.438,-80.208 15.354,-81.292C14.271,-82.375 12.927,-82.818 11.333,-82.625L7.542,-82.146L15.958,-14.937L19.75,-15.417C21.344,-15.609 22.531,-16.333 23.313,-17.583C24.104,-18.833 24.375,-20.458 24.125,-22.458L17.375,-76.5Z" style="fill-rule:nonzero;"/>
                </g>
            </g>
            <g transform="matrix(0.89196,0,0,0.882079,342.436,348.162)">
                <g>
                    <path d="M28.479,-16.937L30.125,-3.771L4,-0.5L-16.458,-164.208L-2.917,-165.896L15.896,-15.354L28.479,-16.937Z" style="fill-rule:nonzero;"/>
                </g>
            </g>
            <g transform="matrix(0.89196,0,0,0.882079,367.158,345.108)">
                <g>
                    <path d="M20.396,-52.375L11.417,-51.25L15.542,-1.937L0.813,-0.104L-7.5,-165.333L10.646,-167.604L43.271,-5.396L28.5,-3.562L20.396,-52.375ZM18.146,-65.458L3.792,-151.167L3,-151.062L10.375,-64.5L18.146,-65.458Z" style="fill-rule:nonzero;"/>
                </g>
            </g>
            <g transform="matrix(0.89196,0,0,0.882079,402.907,340.691)">
                <g>
                    <path d="M14.313,-15.167L30.063,-17.125L31.708,-3.958L1,-0.125L-1.271,-152.75L-17.021,-150.792L-18.667,-163.937L12.25,-167.792L14.313,-15.167ZM9.063,-186.833L5.167,-170.958L-10.583,-168.979L-18.063,-183.458L-8.292,-184.667L-3.25,-175.167L-0.708,-185.625L9.063,-186.833Z" style="fill-rule:nonzero;"/>
                </g>
            </g>
            <g transform="matrix(0.89196,0,0,0.882079,429.408,337.416)">
                <g>
                    <path d="M29.458,-17.062L31.104,-3.896L4,-0.5L-16.458,-164.208L10.25,-167.542L11.896,-154.396L-1.271,-152.75L6.188,-93.125L18.958,-94.729L20.604,-81.562L7.833,-79.958L15.896,-15.354L29.458,-17.062Z" style="fill-rule:nonzero;"/>
                </g>
            </g>
            <g transform="matrix(0.89196,0,0,0.882079,454.842,334.274)">
                <g>
                    <path d="M-2.208,8.167L-1.208,8.042C1.052,7.76 2.589,7.094 3.396,6.042C4.214,5 4.469,3.281 4.167,0.896L-16.458,-164.208L-2.917,-165.896L17.771,-0.396C18.531,5.729 17.693,10.323 15.25,13.396C12.802,16.464 8.589,18.375 2.604,19.125C1.146,19.302 0.005,19.375 -0.813,19.333L-2.208,8.167Z" style="fill-rule:nonzero;"/>
                </g>
            </g>
            <g transform="matrix(0.89196,0,0,0.882079,470.493,332.34)">
                <g>
                    <path d="M29.458,-17.062L31.104,-3.896L4,-0.5L-16.458,-164.208L10.25,-167.542L11.896,-154.396L-1.271,-152.75L6.188,-93.125L18.958,-94.729L20.604,-81.562L7.833,-79.958L15.896,-15.354L29.458,-17.062Z" style="fill-rule:nonzero;"/>
                </g>
            </g>
            <g transform="matrix(0.89196,0,0,0.882079,7.18819,260.026)">
                <g>
                    <path d="M-2.896,5.792L-2.125,5.854C-0.385,5.979 0.859,5.708 1.625,5.042C2.401,4.385 2.859,3.146 3,1.313L12.417,-125.687L22.833,-124.917L13.396,2.375C13.047,7.083 11.719,10.401 9.417,12.333C7.125,14.276 3.672,15.083 -0.938,14.75C-2.063,14.667 -2.927,14.542 -3.542,14.375L-2.896,5.792Z" style="fill:white;fill-rule:nonzero;"/>
                </g>
            </g>
            <g transform="matrix(0.89196,0,0,0.882079,21.9592,261.108)">
                <g>
                    <path d="M16.083,-48.479L13.396,-12.417C13.297,-11 13.547,-9.854 14.146,-8.979C14.755,-8.115 15.573,-7.646 16.604,-7.562C17.63,-7.49 18.505,-7.839 19.229,-8.604C19.948,-9.38 20.359,-10.479 20.458,-11.896L22.125,-34.292L32.25,-33.542L30.563,-10.833C30.24,-6.443 28.781,-3.083 26.188,-0.75C23.604,1.583 20.167,2.589 15.875,2.271C11.677,1.948 8.443,0.469 6.167,-2.167C3.901,-4.802 2.938,-8.365 3.271,-12.854L8.729,-86.5C9.047,-90.885 10.5,-94.24 13.083,-96.562C15.677,-98.896 19.125,-99.901 23.417,-99.583C27.594,-99.276 30.823,-97.802 33.104,-95.167C35.38,-92.542 36.354,-88.979 36.021,-84.479L33.271,-47.208L16.083,-48.479ZM22.688,-89.771C21.656,-89.854 20.776,-89.505 20.042,-88.729C19.318,-87.948 18.906,-86.854 18.813,-85.437L16.708,-57.042L23.771,-56.521L25.875,-84.917C25.969,-86.333 25.719,-87.479 25.125,-88.354C24.526,-89.229 23.714,-89.698 22.688,-89.771Z" style="fill:white;fill-rule:nonzero;"/>
                </g>
            </g>
            <g transform="matrix(0.89196,0,0,0.882079,50.4071,263.191)">
                <g>
                    <path d="M38.625,-123.75L29.292,2.167L19.167,1.417L19.625,-4.708L19.333,-4.729C18.427,-2.437 17.214,-0.729 15.688,0.396C14.172,1.521 12.5,2.01 10.667,1.875C8.208,1.693 6.25,0.677 4.792,-1.167C3.344,-3.026 2.755,-5.755 3.021,-9.354L9,-90.021C9.26,-93.589 10.25,-96.187 11.958,-97.812C13.667,-99.437 15.75,-100.156 18.208,-99.979C20.042,-99.839 21.651,-99.094 23.042,-97.75C24.443,-96.417 25.406,-94.5 25.938,-92L26.083,-92L28.5,-124.5L38.625,-123.75ZM15.771,-6.854C17.313,-6.74 18.698,-7.464 19.938,-9.021L25.771,-87.833C24.781,-89.552 23.521,-90.469 21.979,-90.583C20.13,-90.719 19.115,-89.615 18.938,-87.271L13.271,-10.583C13.089,-8.234 13.922,-6.99 15.771,-6.854Z" style="fill:white;fill-rule:nonzero;"/>
                </g>
            </g>
            <g transform="matrix(0.89196,0,0,0.882079,78.8549,265.274)">
                <g>
                    <path d="M28.771,-99.042C31.13,-98.875 33.005,-97.833 34.396,-95.917C35.781,-94 36.344,-91.255 36.083,-87.687L29.438,2.188L19.313,1.438L25.833,-86.583C26,-88.943 25.167,-90.193 23.333,-90.333C21.802,-90.443 20.469,-89.771 19.333,-88.312L12.729,0.938L2.604,0.188L9.979,-99.5L20.104,-98.75L19.646,-92.625L19.792,-92.604C20.776,-94.781 22.063,-96.437 23.646,-97.562C25.229,-98.687 26.938,-99.177 28.771,-99.042Z" style="fill:white;fill-rule:nonzero;"/>
                </g>
            </g>
            <g transform="matrix(0.89196,0,0,0.882079,107.303,267.358)">
                <g>
                    <path d="M15.875,2.271C11.677,1.948 8.443,0.469 6.167,-2.167C3.901,-4.802 2.938,-8.365 3.271,-12.854L8.729,-86.5C9.047,-90.885 10.5,-94.24 13.083,-96.562C15.677,-98.896 19.125,-99.901 23.417,-99.583C27.594,-99.276 30.823,-97.802 33.104,-95.167C35.38,-92.542 36.354,-88.979 36.021,-84.479L30.563,-10.833C30.24,-6.443 28.781,-3.083 26.188,-0.75C23.604,1.583 20.167,2.589 15.875,2.271ZM16.604,-7.562C17.63,-7.49 18.505,-7.839 19.229,-8.604C19.948,-9.38 20.359,-10.479 20.458,-11.896L25.875,-84.917C25.969,-86.333 25.719,-87.479 25.125,-88.354C24.526,-89.229 23.714,-89.698 22.688,-89.771C21.656,-89.854 20.776,-89.505 20.042,-88.729C19.318,-87.948 18.906,-86.854 18.813,-85.437L13.396,-12.417C13.297,-11 13.547,-9.854 14.146,-8.979C14.755,-8.115 15.573,-7.646 16.604,-7.562Z" style="fill:white;fill-rule:nonzero;"/>
                </g>
            </g>
            <g transform="matrix(0.89196,0,0,0.882079,135.751,269.441)">
                <g>
                    <path d="M28.833,-85.312C27.083,-85.448 25.422,-85.292 23.854,-84.833C22.281,-84.375 20.635,-83.594 18.917,-82.5L12.729,0.938L2.604,0.188L9.979,-99.5L20.104,-98.75L19.208,-86.625L19.354,-86.604C20.438,-90.13 21.531,-92.776 22.646,-94.542C23.755,-96.318 24.865,-97.5 25.979,-98.083C27.104,-98.667 28.385,-98.901 29.833,-98.792L28.833,-85.312Z" style="fill:white;fill-rule:nonzero;"/>
                </g>
            </g>
            <g transform="matrix(0.89196,0,0,0.882079,156.266,270.943)">
                <g>
                    <path d="M15.875,2.271C11.677,1.948 8.443,0.469 6.167,-2.167C3.901,-4.802 2.938,-8.365 3.271,-12.854L8.729,-86.5C9.047,-90.885 10.5,-94.24 13.083,-96.562C15.677,-98.896 19.125,-99.901 23.417,-99.583C27.594,-99.276 30.823,-97.802 33.104,-95.167C35.38,-92.542 36.354,-88.979 36.021,-84.479L30.563,-10.833C30.24,-6.443 28.781,-3.083 26.188,-0.75C23.604,1.583 20.167,2.589 15.875,2.271ZM16.604,-7.562C17.63,-7.49 18.505,-7.839 19.229,-8.604C19.948,-9.38 20.359,-10.479 20.458,-11.896L25.875,-84.917C25.969,-86.333 25.719,-87.479 25.125,-88.354C24.526,-89.229 23.714,-89.698 22.688,-89.771C21.656,-89.854 20.776,-89.505 20.042,-88.729C19.318,-87.948 18.906,-86.854 18.813,-85.437L13.396,-12.417C13.297,-11 13.547,-9.854 14.146,-8.979C14.755,-8.115 15.573,-7.646 16.604,-7.562Z" style="fill:white;fill-rule:nonzero;"/>
                </g>
            </g>
            <g transform="matrix(0.89196,0,0,0.882079,184.714,273.026)">
                <g>
                    <path d="M12.021,-8.062L22.292,-7.292L21.625,1.604L0.917,0.063L18.083,-89.958L7.646,-90.729L8.292,-99.625L29.146,-98.083L12.021,-8.062ZM30.542,-116.937L25.063,-103L12.938,-103.896L9.688,-118.479L17.208,-117.917L19.396,-107.917L23.021,-117.479L30.542,-116.937Z" style="fill:white;fill-rule:nonzero;"/>
                </g>
            </g>
            <g transform="matrix(0.89196,0,0,0.882079,204.956,274.509)">
                <g>
                    <path d="M15.708,2.25C11.526,1.943 8.323,0.469 6.104,-2.167C3.88,-4.802 2.938,-8.365 3.271,-12.854L8.729,-86.5C9.047,-90.885 10.5,-94.24 13.083,-96.562C15.677,-98.896 19.068,-99.906 23.25,-99.604C27.443,-99.297 30.651,-97.823 32.875,-95.187C35.094,-92.562 36.042,-89 35.708,-84.5L34.021,-61.792L23.896,-62.542L25.563,-84.937C25.656,-86.354 25.427,-87.49 24.875,-88.354C24.333,-89.229 23.547,-89.708 22.521,-89.792C21.505,-89.859 20.656,-89.505 19.979,-88.729C19.297,-87.948 18.906,-86.854 18.813,-85.437L13.396,-12.417C13.297,-11 13.526,-9.854 14.083,-8.979C14.635,-8.115 15.422,-7.651 16.438,-7.583C17.464,-7.5 18.313,-7.844 18.979,-8.625C19.656,-9.401 20.047,-10.5 20.146,-11.917L21.813,-34.312L31.938,-33.562L30.25,-10.854C29.927,-6.464 28.469,-3.104 25.875,-0.771C23.292,1.547 19.901,2.552 15.708,2.25Z" style="fill:white;fill-rule:nonzero;"/>
                </g>
            </g>
            <g transform="matrix(0.89196,0,0,0.882079,232.856,276.552)">
                <g>
                    <path d="M16.083,-48.479L13.396,-12.417C13.297,-11 13.547,-9.854 14.146,-8.979C14.755,-8.115 15.573,-7.646 16.604,-7.562C17.63,-7.49 18.505,-7.839 19.229,-8.604C19.948,-9.38 20.359,-10.479 20.458,-11.896L22.125,-34.292L32.25,-33.542L30.563,-10.833C30.24,-6.443 28.781,-3.083 26.188,-0.75C23.604,1.583 20.167,2.589 15.875,2.271C11.677,1.948 8.443,0.469 6.167,-2.167C3.901,-4.802 2.938,-8.365 3.271,-12.854L8.729,-86.5C9.047,-90.885 10.5,-94.24 13.083,-96.562C15.677,-98.896 19.125,-99.901 23.417,-99.583C27.594,-99.276 30.823,-97.802 33.104,-95.167C35.38,-92.542 36.354,-88.979 36.021,-84.479L33.271,-47.208L16.083,-48.479ZM22.688,-89.771C21.656,-89.854 20.776,-89.505 20.042,-88.729C19.318,-87.948 18.906,-86.854 18.813,-85.437L16.708,-57.042L23.771,-56.521L25.875,-84.917C25.969,-86.333 25.719,-87.479 25.125,-88.354C24.526,-89.229 23.714,-89.698 22.688,-89.771Z" style="fill:white;fill-rule:nonzero;"/>
                </g>
            </g>
        </g>
    </g>
</svg>
