<svg xmlns="http://www.w3.org/2000/svg" version="1.1" xmlns:xlink="http://www.w3.org/1999/xlink" xmlns:svgjs="http://svgjs.dev/svgjs" width="48px" height="48px"><svg xmlns="http://www.w3.org/2000/svg" xmlns:xlink="http://www.w3.org/1999/xlink" viewBox="0,0,256,256" width="48px" height="48px" fill-rule="nonzero"><g transform=""><g fill="none" fill-rule="nonzero" stroke="none" stroke-width="none" stroke-linecap="butt" stroke-linejoin="none" stroke-miterlimit="10" stroke-dasharray="" stroke-dashoffset="0" font-family="none" font-weight="none" font-size="none" text-anchor="none" style="mix-blend-mode: normal"><path transform="scale(5.33333,5.33333)" d="M19.1,9.8c2.32506,1.99291 3.89991,4.07408 5.16429,6.12625c1.17415,-0.63818 2.55854,-1.27934 4.23571,-1.92625c2.13369,-0.83492 13.13168,-3.13289 14.39167,-3.46084c0.03613,-0.04636 0.07224,-0.09275 0.10833,-0.13916c-0.03124,0.04512 -0.0625,0.09024 -0.09378,0.13534c0.04722,-0.01247 0.07879,-0.02178 0.09352,-0.0277c-0.01018,0.3036 -0.33919,9.58768 -2.69975,15.29236c-1.9,5.1 -5.3,9 -8,11.7c-3.82678,3.82678 -11.48667,6.69528 -18.91413,4.62127c-0.33603,0.21884 -0.66881,0.44093 -0.98587,0.67873c-0.9,0.6 -1.8,1 -2.8,1.5c-0.7,0.4 -1.6,0 -2,-0.7c-0.4,-0.7 0,-1.6 0.7,-2c0.1,0.1 0.1,0 0.2,0c0.8,-0.3 1.7,-0.7 2.5,-1.1c0.15114,-0.09446 0.30585,-0.18536 0.46279,-0.27471c-0.76333,-3.80032 -0.17587,-7.641 0.9946,-10.90779c-0.16001,-0.20942 -0.31158,-0.4161 -0.45562,-0.61912c-0.44605,-0.59854 -0.81669,-1.17323 -1.10177,-1.69838c-1.5,-2.9 -3.1,-5.2 -3.8,-11.5c-0.3,-2 -0.1,-12.8 -0.1,-12.5c0,0 7.9,3.5 12.1,6.8zM43,10.5c0.01263,0 0.0123,0.00259 -0.00025,0.00764c0.00017,-0.00507 0.00025,-0.00764 0.00025,-0.00764z" id="SvgjsPath1001" fill="#dddddd" stroke="#dddddd" stroke-width="6" stroke-linejoin="round"></path><g transform="scale(5.33333,5.33333)" stroke="none" stroke-width="1" stroke-linejoin="miter"><path d="M7,3c0,-0.3 -0.2,10.5 0.1,12.5c0.7,6.3 2.3,8.6 3.8,11.5c1.9,3.5 7.6,9.2 14.1,9.5c3.9,-5.5 3.3,-13 1,-17.5c-1.6,-3 -3.4,-6.2 -6.9,-9.2c-4.2,-3.3 -12.1,-6.8 -12.1,-6.8z" fill="#9e6924"></path><path d="M24.5,40.1l-3.8,-9.6l-2,-4.8c-0.3,-0.8 -0.7,-1.6 -1,-2.3l-0.3,-0.6c-0.1,-0.2 -0.1,-0.2 -0.2,-0.4l-0.7,-1.1c-1.9,-2.9 -3.9,-5.7 -5.5,-8.8c-1.6,-3 -2.8,-6.3 -4,-9.5c1.5,3.1 2.9,6.2 4.7,9.1c1.8,2.9 4,5.6 6.1,8.2l0.8,1c0.1,0.2 0.3,0.5 0.4,0.7l0.3,0.6c0.4,0.8 0.7,1.6 1.1,2.4l2,4.8l3.9,9.6c0.2,0.5 0,1.1 -0.5,1.3c-0.5,0.2 -1,-0.1 -1.3,-0.6v0z" fill="#652e2e"></path><path d="M8,13c0.7,0.7 1.5,1.2 2.4,1.4c0.4,0.1 0.8,0.1 1.2,0.1c0.4,0 0.7,-0.2 1.1,-0.4l0.7,1.9c-0.6,0.1 -1.2,0.2 -1.8,0c-0.6,-0.1 -1.1,-0.3 -1.6,-0.6c-0.9,-0.7 -1.6,-1.5 -2,-2.4z" fill="#652e2e"></path><path d="M16,11c0.4,1 0.7,2.1 0.7,3.2c0,0.6 -0.1,1.2 -0.2,1.8c-0.2,0.6 -0.5,1.2 -0.8,1.8l-1.4,-1.4c0.3,-0.3 0.6,-0.6 0.9,-1c0.2,-0.4 0.5,-0.8 0.6,-1.3c0.2,-1 0.3,-2 0.2,-3.1z" fill="#652e2e"></path><path d="M23,14.4c-3.2,1.8 -4.9,3.6 -6.6,5.3c-0.3,0.3 -0.6,0.6 -0.9,0.9c-1.5,1.5 -3.1,4 -4.3,6.9c0.7,1.1 1.6,2.4 2.9,3.7c1,-3.3 2.7,-6.1 4.2,-7.7c0.3,-0.3 0.6,-0.6 0.9,-1c1.6,-1.7 3.1,-3.2 5.9,-4.7c-0.6,-1.2 -1.3,-2.3 -2.1,-3.4z" fill-opacity="0.58039" fill="#84551f"></path><path d="M43,10.5c0.4,0 -12.2,2.6 -14.5,3.5c-7,2.7 -8.9,5.3 -11.7,8c-3.3,3.3 -7.3,11.7 -5,19.6c7.9,3 16.4,0 20.5,-4.1c2.7,-2.7 6.1,-6.6 8,-11.7c2.4,-5.8 2.7,-15.3 2.7,-15.3z" fill="#9e6924"></path><path d="M8.5,41.6c0.8,-0.3 1.7,-0.7 2.5,-1.1c0.8,-0.5 1.7,-0.9 2.5,-1.5c1.6,-1 3.2,-2.1 4.8,-3.3c3.1,-2.4 6.1,-4.9 8.9,-7.7c5.7,-5.4 10.9,-11.3 15.8,-17.6c-4.5,6.5 -9.4,12.8 -14.8,18.6c-2.7,2.9 -5.5,5.7 -8.6,8.4c-1.5,1.3 -3.1,2.6 -4.7,3.7c-0.8,0.6 -1.7,1.1 -2.5,1.7c-0.9,0.6 -1.8,1 -2.8,1.5c-0.7,0.4 -1.6,0 -2,-0.7c-0.4,-0.7 0,-1.6 0.7,-2c0.1,0.1 0.1,0 0.2,0z" fill="#652e2e"></path><path d="M18.2,23.9c-0.3,2 -0.4,4.1 -0.2,6.1c0.2,2 0.7,4 1.8,5.4v0c0.3,0.4 0.3,1.1 -0.2,1.4c-0.4,0.3 -1.1,0.3 -1.4,-0.2l-0.1,-0.1c-1.1,-2.1 -1.3,-4.4 -1.2,-6.5c0.3,-2.1 0.7,-4.1 1.3,-6.1z" fill="#652e2e"></path><path d="M35.9,30.3c-0.8,0.6 -1.6,1 -2.5,1.5c-0.9,0.4 -1.8,0.8 -2.8,1c-1,0.2 -2,0.3 -3.1,0.2c-1.1,-0.1 -2.1,-0.5 -3.1,-1.1l1.2,-1.6c0.6,0.5 1.3,1 2.2,1.2c0.8,0.2 1.7,0.3 2.7,0.3c0.9,0 1.9,-0.2 2.8,-0.5c0.8,-0.3 1.7,-0.6 2.6,-1z" fill="#652e2e"></path><path d="M32.4,15.4c-0.6,1.6 -1.1,3.2 -1.4,4.8c-0.1,0.8 -0.1,1.6 0,2.4c0.1,0.7 0.4,1.4 0.8,1.8l-1.5,1.3c-0.7,-1 -0.8,-2 -0.7,-3c0,-0.9 0.3,-1.8 0.6,-2.7c0.4,-1.6 1.2,-3.2 2.2,-4.6z" fill="#652e2e"></path></g></g></g></svg><style>@media (prefers-color-scheme: light) { :root { filter: none; } }
@media (prefers-color-scheme: dark) { :root { filter: none; } }
</style></svg>