<?xml version="1.0" standalone="no"?>
<!DOCTYPE svg PUBLIC "-//W3C//DTD SVG 20010904//EN"
 "http://www.w3.org/TR/2001/REC-SVG-20010904/DTD/svg10.dtd">
<svg version="1.0" xmlns="http://www.w3.org/2000/svg"
 width="512.000000pt" height="512.000000pt" viewBox="0 0 512.000000 512.000000"
 preserveAspectRatio="xMidYMid meet">
<metadata>
Created by potrace 1.14, written by Peter Selinger 2001-2017
</metadata>
<g transform="translate(0.000000,512.000000) scale(0.100000,-0.100000)"
fill="#000000" stroke="none">
<path d="M3965 4854 c-64 -16 -126 -41 -170 -69 -60 -38 -177 -154 -214 -210
-19 -30 -34 -41 -56 -43 -76 -8 -187 -88 -225 -162 -10 -19 -43 -53 -73 -74
-107 -77 -156 -192 -136 -318 l8 -48 -61 -57 c-34 -32 -78 -74 -98 -93 -115
-110 -283 -265 -291 -268 -5 -2 -27 3 -49 12 -163 65 -416 72 -582 15 -144
-49 -227 -106 -389 -266 -164 -162 -190 -212 -183 -353 4 -88 -5 -117 -50
-159 -31 -29 -65 -30 -146 -2 -120 42 -214 24 -390 -75 -179 -101 -339 -243
-431 -384 -65 -99 -129 -247 -143 -331 -3 -18 -10 -56 -15 -84 -14 -70 -7
-275 13 -367 23 -107 87 -300 127 -383 19 -38 36 -86 37 -105 10 -126 52 -203
176 -324 122 -119 152 -145 141 -127 -5 9 5 7 31 -7 21 -12 54 -23 73 -25 19
-2 37 -9 39 -16 3 -8 0 -11 -7 -7 -7 4 -9 2 -5 -8 4 -11 0 -13 -15 -9 -12 3
-21 1 -21 -4 0 -17 42 -7 54 13 6 11 20 20 31 19 29 0 105 -36 99 -46 -3 -5 2
-6 10 -3 10 4 16 1 16 -7 0 -7 2 -10 5 -7 3 3 22 0 43 -8 27 -9 36 -17 34 -31
-3 -16 -2 -16 12 2 16 19 16 19 14 1 -2 -10 4 -21 12 -23 12 -4 12 -3 1 5 -23
17 3 19 51 5 28 -8 48 -20 48 -28 0 -22 17 -27 34 -10 13 14 17 13 32 -7 11
-16 15 -17 11 -6 -11 30 11 20 27 -14 16 -31 13 -55 -4 -28 -10 17 -47 23 -55
10 -4 -6 3 -9 17 -7 13 2 28 -3 35 -12 9 -13 14 -14 24 -4 10 10 10 16 1 25
-23 23 -14 37 17 28 16 -4 32 -6 35 -2 3 3 6 1 6 -4 0 -6 23 -10 50 -9 39 1
49 -2 45 -13 -3 -7 -5 -20 -5 -28 0 -8 -5 -13 -11 -11 -6 1 -14 -5 -16 -13 -4
-12 -3 -12 5 -2 5 8 13 13 18 12 5 0 10 8 12 20 2 11 8 17 14 14 7 -4 8 -2 4
4 -5 9 14 11 68 9 42 -1 76 0 76 3 0 3 14 6 30 6 17 1 30 -3 30 -10 0 -7 3 -6
8 2 5 7 22 15 38 18 16 3 34 7 39 9 6 1 29 6 53 10 23 4 45 11 48 16 2 4 11 6
19 2 8 -3 15 -1 15 5 0 10 47 27 64 23 5 -1 12 3 16 10 6 8 13 8 26 0 19 -10
17 -12 -8 -15 -7 0 -13 -12 -13 -25 0 -17 6 -25 22 -27 27 -4 35 7 21 26 -8
12 -9 12 -5 -2 4 -12 0 -16 -14 -15 -11 1 -19 9 -19 20 0 10 3 16 8 13 4 -2
15 2 25 9 17 13 17 14 -3 20 -28 9 -12 28 23 28 19 0 24 4 20 16 -4 9 -3 13 1
9 5 -4 17 2 29 13 11 10 24 19 29 19 12 0 10 -17 -2 -23 -6 -3 -5 -4 2 -3 7 2
13 9 13 18 0 17 28 48 43 48 6 0 12 6 15 13 3 9 7 9 19 -1 17 -14 34 -1 23 17
-3 6 9 26 26 45 32 37 51 46 46 24 -1 -8 8 -13 23 -13 15 0 24 5 23 13 -3 14
13 16 20 2 3 -6 4 -5 3 2 -2 7 -9 13 -17 13 -8 0 -13 -6 -12 -12 2 -7 -7 -13
-19 -13 -12 0 -18 3 -15 7 4 3 3 11 -2 17 -7 8 3 26 29 54 22 23 44 51 50 62
6 12 16 17 22 14 8 -5 9 -1 5 10 -4 9 -3 14 2 11 5 -3 12 -1 16 5 3 5 0 10 -7
10 -7 1 1 8 17 16 17 8 22 12 13 10 -11 -3 -15 0 -12 9 3 8 13 11 22 7 15 -5
15 -4 3 11 -12 15 -10 18 10 26 20 7 25 5 31 -13 6 -19 7 -18 5 4 -1 18 -7 24
-20 22 -14 -2 -12 6 14 55 17 32 35 63 40 69 5 6 6 13 4 16 -3 3 3 8 15 11 15
4 20 0 20 -15 0 -10 -4 -17 -9 -14 -5 3 -16 -5 -25 -19 -9 -14 -15 -26 -14
-26 22 -10 50 -3 59 15 9 18 8 19 -3 6 -7 -8 -21 -16 -31 -18 -15 -3 -16 0 -5
17 6 11 17 19 22 18 6 -1 11 9 11 23 0 19 -4 24 -19 22 -16 -3 -18 -1 -8 11 6
7 8 18 4 22 -4 5 2 5 13 1 16 -6 18 -5 8 5 -16 16 -18 73 -3 64 6 -4 17 -1 25
5 11 9 14 7 12 -10 -1 -15 -6 -20 -19 -17 -10 3 -18 1 -18 -5 0 -5 10 -8 22
-6 38 6 29 69 -11 67 -12 0 -12 -2 3 -8 14 -5 16 -10 8 -15 -18 -11 -32 2 -28
27 2 12 -5 46 -15 74 -10 29 -14 55 -9 58 5 3 11 -2 13 -10 4 -11 4 -10 3 2
-1 10 -8 18 -16 18 -9 0 -15 13 -18 38 -3 33 1 43 33 73 30 28 40 32 51 23 8
-7 17 -9 21 -5 3 3 1 6 -5 6 -7 0 -12 4 -12 9 0 4 12 7 28 6 15 -1 45 -3 67
-4 30 -1 36 -4 25 -11 -9 -6 -10 -10 -3 -10 6 0 14 4 17 9 7 11 56 20 73 14 7
-3 10 -10 6 -17 -3 -6 0 -5 8 2 12 11 12 14 -1 22 -12 8 -11 10 8 11 12 1 28
2 35 3 6 1 20 10 29 21 10 11 17 17 18 12 0 -4 57 50 127 120 70 71 123 122
118 114 -5 -9 -4 -12 3 -7 6 4 8 14 5 23 -5 13 -2 15 11 10 13 -5 17 -3 13 7
-3 7 2 22 12 32 9 11 24 34 31 52 8 17 18 33 22 33 5 1 12 2 17 3 18 2 24 16
12 30 -10 11 -7 14 13 12 18 -1 24 -6 23 -21 -2 -14 4 -19 23 -20 16 0 24 5
22 14 -2 9 4 12 19 8 16 -4 19 -3 11 5 -13 13 -46 3 -37 -11 3 -6 -3 -9 -14
-8 -14 1 -19 8 -18 22 1 14 -3 19 -15 17 -9 -1 -19 2 -23 8 -3 5 1 10 9 10 9
0 16 5 16 11 0 5 -4 8 -9 5 -5 -4 -4 10 2 29 6 19 14 35 19 35 5 0 6 10 3 21
-4 13 -3 19 2 16 6 -4 10 6 11 21 0 15 3 45 6 67 3 22 6 64 6 93 1 34 5 52 13
52 9 0 9 2 1 8 -15 9 -28 102 -14 102 5 0 9 -5 8 -11 -2 -6 3 -13 10 -14 7 -2
8 -1 2 2 -5 2 -8 9 -4 14 3 5 -2 12 -10 15 -9 3 -13 10 -10 15 3 5 0 9 -5 9
-14 0 -8 43 6 47 6 2 10 -6 9 -19 -1 -14 5 -23 14 -23 8 0 22 -5 30 -10 13 -7
13 -6 2 7 -8 9 -19 15 -26 12 -9 -3 -13 3 -12 18 1 15 -5 23 -16 23 -24 0 -35
15 -12 16 17 0 16 1 -3 9 -13 5 -24 19 -24 30 -2 20 -5 38 -9 43 -1 1 -3 9 -5
17 -2 8 -7 24 -11 34 -5 14 -4 17 4 12 7 -4 12 -3 12 3 0 18 64 81 82 81 9 0
20 4 23 10 4 6 -1 7 -12 3 -19 -6 -1 16 89 108 26 27 45 49 43 49 -2 0 7 11
21 25 30 30 32 30 30 8 0 -10 5 -17 12 -15 6 1 12 -7 12 -18 0 -11 -6 -19 -12
-18 -8 2 -12 -7 -11 -25 2 -24 0 -27 -13 -17 -10 9 -14 9 -14 1 0 -6 4 -11 9
-11 5 0 11 -7 13 -16 2 -10 7 -5 15 15 6 17 7 29 2 25 -5 -3 -9 2 -9 10 0 9 6
15 13 14 7 -2 12 7 12 22 0 14 -5 24 -11 23 -7 -1 -11 9 -10 22 0 14 6 25 13
25 6 0 15 5 19 12 5 7 3 8 -7 3 -8 -5 -3 3 11 18 14 15 33 27 42 27 9 0 20 4
23 10 4 6 -1 7 -12 3 -16 -6 -16 -5 -4 10 7 9 17 14 22 11 5 -3 8 0 7 6 -2 7
5 14 15 15 10 2 17 -3 17 -11 0 -9 -4 -12 -10 -9 -6 4 -7 -1 -3 -11 5 -13 3
-15 -7 -9 -8 5 -11 4 -7 -2 4 -6 -9 -18 -31 -26 -20 -9 -30 -16 -22 -16 20 -1
80 36 80 49 0 6 4 8 10 5 5 -3 7 0 5 7 -4 9 2 14 14 14 11 0 17 -4 15 -8 -3
-4 0 -8 5 -8 6 0 11 4 11 8 0 5 14 8 30 8 17 0 30 -4 30 -10 0 -6 4 -5 8 2 5
7 17 14 28 16 32 6 96 40 122 63 14 13 29 20 35 16 6 -3 7 -1 3 5 -4 7 5 24
21 39 15 14 21 23 13 19 -13 -7 -13 -6 0 6 8 7 16 20 18 28 5 22 24 30 39 18
11 -8 12 -7 7 7 -5 13 -4 16 4 11 7 -4 15 -1 18 8 3 9 10 14 14 11 5 -3 12 4
15 16 6 17 9 19 16 8 6 -10 9 -8 9 9 0 13 6 22 16 22 8 0 13 4 10 9 -3 5 3 11
14 14 13 3 21 -1 26 -15 3 -11 8 -17 11 -15 11 12 -18 46 -34 40 -14 -6 -14
-2 3 28 10 19 20 36 22 38 1 3 8 -1 14 -7 7 -7 16 -12 22 -12 5 0 1 6 -9 14
-28 20 -25 54 7 84 15 15 31 26 34 24 3 -2 16 8 29 22 25 27 41 35 29 14 -5
-8 -1 -8 12 2 29 22 30 24 12 17 -25 -9 -23 -3 12 35 17 18 30 29 30 24 0 -5
10 4 22 20 12 16 24 33 28 37 4 4 13 0 21 -9 12 -16 12 -17 -4 -11 -11 4 -16
3 -12 -3 3 -6 1 -10 -6 -10 -7 0 -10 -3 -7 -6 4 -3 16 -1 27 6 20 10 20 12 5
35 -15 22 -15 25 -1 25 9 0 19 5 23 12 4 7 3 8 -4 4 -17 -10 -15 9 3 24 8 7
13 16 10 20 -3 4 6 15 20 24 14 9 25 22 25 28 0 7 -7 3 -16 -8 -15 -19 -16
-19 -9 1 4 11 8 27 10 35 2 8 4 17 5 20 1 3 2 9 1 14 -1 5 4 13 11 17 10 6 10
9 1 9 -7 0 -10 7 -7 15 4 8 10 13 14 10 4 -3 14 3 21 13 13 15 12 16 -3 4 -11
-9 -18 -10 -23 -2 -3 5 0 10 7 10 9 0 9 3 2 8 -6 4 -13 32 -17 62 -3 30 -3 49
0 42 4 -10 8 -8 18 5 7 10 19 18 27 18 20 0 18 44 -3 56 -13 6 -19 6 -19 -1 0
-5 6 -10 13 -10 7 0 13 -10 14 -21 1 -12 -1 -18 -4 -15 -4 3 -15 -1 -25 -11
-12 -10 -18 -12 -18 -4 0 7 -4 10 -9 7 -5 -4 -8 32 -7 82 1 48 -4 106 -11 129
-6 22 -9 43 -7 46 3 2 6 13 9 25 3 16 -1 19 -18 15 -21 -4 -21 -4 -3 11 18 14
17 15 -8 22 -14 3 -26 12 -26 19 0 8 -31 45 -69 84 -53 55 -85 79 -147 108
-72 33 -88 37 -182 40 -56 1 -119 7 -140 11 -42 10 -156 13 -187 6z m775 -318
c0 -3 -4 -8 -10 -11 -5 -3 -10 -1 -10 4 0 6 5 11 10 11 6 0 10 -2 10 -4z
m-1320 -2546 c0 -5 -2 -10 -4 -10 -3 0 -8 5 -11 10 -3 6 -1 10 4 10 6 0 11 -4
11 -10z m-1083 -1391 c2 -16 -1 -19 -9 -11 -5 5 -7 15 -4 21 10 15 12 14 13
-10z m-1022 -198 c3 -5 1 -12 -5 -16 -5 -3 -10 1 -10 9 0 18 6 21 15 7z"/>
<path d="M4770 4510 c6 -11 13 -20 16 -20 2 0 0 9 -6 20 -6 11 -13 20 -16 20
-2 0 0 -9 6 -20z"/>
<path d="M4750 4501 c0 -6 4 -13 10 -16 6 -3 7 1 4 9 -7 18 -14 21 -14 7z"/>
<path d="M4755 4460 c3 -5 8 -10 11 -10 2 0 4 5 4 10 0 6 -5 10 -11 10 -5 0
-7 -4 -4 -10z"/>
<path d="M4781 4442 c-11 -20 2 -43 16 -28 4 3 1 6 -5 6 -6 0 -9 7 -5 16 5 14
8 12 19 -7 7 -13 13 -19 14 -13 0 5 -6 19 -14 29 -13 18 -14 18 -25 -3z"/>
<path d="M4789 4390 c-16 -9 -21 -50 -6 -50 4 0 12 0 17 0 6 0 10 5 10 11 0 8
-5 7 -16 -2 -14 -11 -15 -10 -12 7 3 19 16 34 31 34 5 0 5 -5 1 -12 -4 -7 -3
-8 5 -4 6 4 9 12 6 17 -8 11 -15 11 -36 -1z"/>
<path d="M4831 4354 c0 -11 3 -14 6 -6 3 7 2 16 -1 19 -3 4 -6 -2 -5 -13z"/>
<path d="M4811 4327 c2 -1 13 -9 24 -17 19 -14 19 -14 6 3 -7 9 -18 17 -24 17
-6 0 -8 -1 -6 -3z"/>
<path d="M4780 4280 c-9 -6 -10 -10 -3 -10 6 0 15 5 18 10 8 12 4 12 -15 0z"/>
<path d="M4833 4245 c-3 -9 -3 -18 -1 -21 3 -3 8 4 11 16 6 23 -1 27 -10 5z"/>
<path d="M4795 4230 c-3 -5 -1 -10 4 -10 6 0 11 5 11 10 0 6 -2 10 -4 10 -3 0
-8 -4 -11 -10z"/>
<path d="M4810 4205 c0 -7 30 -13 34 -7 3 4 -4 9 -15 9 -10 1 -19 0 -19 -2z"/>
<path d="M4780 4178 c0 -5 8 -7 18 -4 13 4 18 1 18 -14 0 -15 -5 -19 -21 -15
-18 5 -18 5 -2 -5 22 -14 34 -6 32 22 -1 16 -8 23 -23 24 -12 1 -22 -3 -22 -8z"/>
<path d="M4838 4123 c7 -3 16 -2 19 1 4 3 -2 6 -13 5 -11 0 -14 -3 -6 -6z"/>
<path d="M4819 4102 c-1 -4 -1 -10 0 -14 0 -5 -6 -8 -14 -8 -8 0 -15 -5 -15
-10 0 -7 7 -7 20 0 11 6 17 16 14 22 -5 7 -2 9 9 5 9 -3 18 -3 21 1 3 4 -4 9
-15 9 -10 1 -20 -1 -20 -5z"/>
<path d="M4830 4060 c0 -5 5 -10 10 -10 6 0 10 5 10 10 0 6 -4 10 -10 10 -5 0
-10 -4 -10 -10z"/>
<path d="M4811 4034 c12 -15 11 -16 -8 -10 -12 4 -24 2 -27 -3 -4 -6 4 -9 18
-8 14 1 26 5 26 10 1 23 -1 27 -11 27 -8 0 -7 -6 2 -16z"/>
<path d="M4850 4000 c0 -5 5 -10 11 -10 5 0 7 5 4 10 -3 6 -8 10 -11 10 -2 0
-4 -4 -4 -10z"/>
<path d="M4795 3987 c11 -7 21 -20 23 -31 2 -12 -1 -16 -9 -10 -8 4 -10 3 -5
-4 4 -7 2 -12 -5 -12 -7 0 -9 -3 -6 -6 11 -12 37 17 34 38 -4 20 -23 38 -42
37 -5 0 -1 -5 10 -12z"/>
<path d="M4775 3960 c-3 -5 -3 -10 2 -11 4 -1 -3 -5 -17 -10 l-25 -8 25 2 c14
1 23 6 22 11 -2 5 2 13 10 17 9 6 9 9 1 9 -6 0 -15 -4 -18 -10z"/>
<path d="M4827 3925 c-18 -26 -5 -47 16 -26 9 9 7 10 -8 5 -20 -7 -20 -7 -1
14 11 12 17 24 15 26 -2 2 -12 -6 -22 -19z"/>
<path d="M4777 3903 c-6 -13 -3 -38 5 -38 4 0 14 -9 23 -20 16 -19 16 -19 5 3
-6 12 -16 20 -21 16 -13 -8 -7 29 6 38 6 5 6 8 -2 8 -6 0 -14 -3 -16 -7z"/>
<path d="M4750 3891 c0 -7 -4 -9 -10 -6 -6 3 -7 -1 -4 -10 4 -10 2 -15 -7 -13
-8 2 -14 -3 -14 -11 0 -8 6 -15 13 -17 7 -1 8 0 2 3 -5 2 -10 9 -10 14 0 6 4
8 9 4 11 -6 36 33 27 43 -3 3 -6 0 -6 -7z"/>
<path d="M4807 3879 c7 -7 15 -10 18 -7 3 3 -2 9 -12 12 -14 6 -15 5 -6 -5z"/>
<path d="M4766 3833 c18 -18 48 -28 38 -12 -3 5 -9 7 -14 4 -4 -3 -10 2 -14
10 -3 8 -10 15 -16 15 -6 0 -4 -8 6 -17z"/>
<path d="M4740 3810 c-6 -11 -7 -20 -3 -20 4 0 1 -4 -7 -10 -8 -5 -19 -5 -25
0 -20 17 -50 4 -50 -21 0 -19 5 -24 25 -24 20 0 24 4 22 20 -2 11 -1 17 3 13
4 -4 16 -3 27 3 11 6 17 13 14 16 -3 3 -1 14 5 24 5 11 7 19 5 19 -3 0 -10 -9
-16 -20z m-44 -50 c0 -12 -7 -18 -18 -17 -10 1 -18 8 -18 17 0 9 8 16 18 17
11 1 18 -5 18 -17z"/>
<path d="M4715 3809 c-4 -6 -5 -12 -2 -15 2 -3 7 2 10 11 7 17 1 20 -8 4z"/>
<path d="M4761 3794 c0 -11 3 -14 6 -6 3 7 2 16 -1 19 -3 4 -6 -2 -5 -13z"/>
<path d="M4624 3756 c-3 -8 -12 -12 -20 -9 -8 3 -14 3 -14 0 0 -16 31 -13 40
3 6 11 8 20 5 20 -3 0 -8 -6 -11 -14z"/>
<path d="M4750 3761 c0 -6 4 -13 10 -16 6 -3 7 1 4 9 -7 18 -14 21 -14 7z"/>
<path d="M4728 3743 c6 -2 9 -10 6 -15 -4 -7 -2 -8 5 -4 13 9 5 26 -12 25 -9
0 -8 -2 1 -6z"/>
<path d="M4630 3723 c0 -5 5 -15 10 -23 7 -12 9 -10 7 8 -1 19 -17 33 -17 15z"/>
<path d="M4588 3709 c-18 -10 -14 -39 4 -39 6 0 5 7 -3 16 -11 14 -10 15 7 12
10 -1 22 -7 26 -13 5 -6 8 -6 8 1 0 20 -24 33 -42 23z"/>
<path d="M4668 3713 c7 -3 16 -2 19 1 4 3 -2 6 -13 5 -11 0 -14 -3 -6 -6z"/>
<path d="M4699 3703 c-1 -5 -1 -12 0 -16 1 -5 -9 -6 -21 -2 -20 5 -21 4 -5 -5
18 -12 41 -5 32 10 -3 5 3 11 12 13 17 4 17 5 1 6 -10 0 -19 -2 -19 -6z"/>
<path d="M4540 3676 c0 -9 -9 -13 -25 -12 -13 2 -22 0 -20 -5 9 -14 46 -5 56
13 6 12 6 18 -1 18 -5 0 -10 -6 -10 -14z"/>
<path d="M4640 3672 c0 -7 -7 -9 -17 -5 -15 5 -16 3 -5 -8 9 -10 15 -10 24 -1
6 6 9 15 5 19 -4 3 -7 1 -7 -5z"/>
<path d="M4556 3654 c-8 -20 -8 -24 2 -24 4 0 8 9 9 20 2 24 -3 26 -11 4z"/>
<path d="M4475 3640 c3 -5 8 -10 11 -10 2 0 4 5 4 10 0 6 -5 10 -11 10 -5 0
-7 -4 -4 -10z"/>
<path d="M4588 3643 c7 -3 16 -2 19 1 4 3 -2 6 -13 5 -11 0 -14 -3 -6 -6z"/>
<path d="M4640 3640 c-8 -5 -10 -10 -5 -10 6 0 17 5 25 10 8 5 11 10 5 10 -5
0 -17 -5 -25 -10z"/>
<path d="M4504 3625 c-10 -8 -14 -15 -9 -15 6 0 3 -5 -5 -11 -13 -9 -13 -10 0
-6 8 2 14 10 12 17 -2 8 3 10 13 6 9 -3 14 -2 10 3 -3 5 1 12 7 14 7 3 8 6 2
6 -5 1 -19 -6 -30 -14z"/>
<path d="M4456 3622 c-10 -16 1 -45 22 -56 11 -6 21 -15 21 -21 0 -5 11 -11
23 -12 l23 -2 -23 7 c-13 4 -22 11 -20 15 2 5 -6 14 -17 20 -11 7 -21 20 -23
31 -2 12 1 16 9 10 8 -4 10 -3 5 4 -8 14 -13 15 -20 4z"/>
<path d="M4574 3619 c-2 -4 -2 -13 1 -21 4 -9 -2 -14 -15 -14 -15 0 -19 5 -15
21 5 18 5 18 -5 2 -14 -23 -6 -34 22 -32 16 2 22 8 21 21 -1 13 5 20 17 21 13
1 17 -3 13 -15 -4 -14 -3 -14 5 -2 6 8 9 17 6 21 -5 9 -44 7 -50 -2z"/>
<path d="M4510 3583 c0 -6 8 -17 18 -24 16 -13 16 -13 2 6 -8 11 -16 22 -17
24 -2 2 -3 0 -3 -6z"/>
<path d="M4433 3530 c1 -11 5 -20 9 -20 11 0 10 28 -1 35 -6 3 -9 -4 -8 -15z"/>
<path d="M4470 3530 c0 -5 5 -10 12 -10 6 0 8 -3 4 -7 -4 -5 -13 -8 -19 -8
-20 0 -14 -49 6 -53 9 -2 17 1 17 7 0 6 -6 8 -13 5 -8 -3 -13 4 -14 16 -1 11
1 18 5 16 4 -2 15 1 24 8 15 11 15 13 -3 24 -11 7 -19 8 -19 2z"/>
<path d="M4514 3495 c-4 -8 -10 -12 -15 -9 -5 3 -6 -2 -3 -11 7 -18 7 -18 23
13 6 12 9 22 6 22 -3 0 -8 -7 -11 -15z"/>
<path d="M4396 3465 c-9 -26 -7 -32 5 -12 6 10 9 21 6 23 -2 3 -7 -2 -11 -11z"/>
<path d="M4411 3445 c4 -3 19 -8 35 -11 16 -3 26 -2 23 1 -4 3 -19 8 -35 11
-16 3 -26 2 -23 -1z"/>
<path d="M4495 3440 c-3 -5 -1 -10 4 -10 6 0 11 5 11 10 0 6 -2 10 -4 10 -3 0
-8 -4 -11 -10z"/>
<path d="M4373 3435 c4 -5 -3 -15 -15 -22 -13 -7 -18 -12 -12 -13 5 0 18 6 29
13 15 12 16 15 4 22 -8 5 -10 4 -6 0z"/>
<path d="M4410 3423 c5 -2 8 -8 5 -12 -2 -5 2 -17 11 -27 14 -18 14 -17 3 6
-7 14 -11 27 -10 30 1 2 -2 5 -8 7 -7 1 -8 0 -1 -4z"/>
<path d="M4441 3404 c0 -11 3 -14 6 -6 3 7 2 16 -1 19 -3 4 -6 -2 -5 -13z"/>
<path d="M4470 3409 c0 -5 5 -7 10 -4 6 3 10 8 10 11 0 2 -4 4 -10 4 -5 0 -10
-5 -10 -11z"/>
<path d="M4390 3401 c0 -6 4 -13 10 -16 6 -3 7 1 4 9 -7 18 -14 21 -14 7z"/>
<path d="M4311 3382 c-6 -12 -6 -23 0 -33 9 -12 10 -12 6 1 -2 8 0 23 5 33 5
9 6 17 4 17 -3 0 -10 -8 -15 -18z"/>
<path d="M4335 3381 c-11 -19 4 -46 26 -46 19 0 24 6 24 25 0 19 -6 25 -23 26
-12 1 -24 -2 -27 -5z m42 -20 c1 -9 -6 -17 -16 -18 -9 -1 -17 6 -18 16 -1 9 6
17 16 18 9 1 17 -6 18 -16z"/>
<path d="M4455 3379 c-4 -6 -5 -12 -2 -15 2 -3 7 2 10 11 7 17 1 20 -8 4z"/>
<path d="M4245 3360 c-3 -6 1 -7 9 -4 18 7 21 14 7 14 -6 0 -13 -4 -16 -10z"/>
<path d="M4410 3360 c8 -5 20 -10 25 -10 6 0 3 5 -5 10 -8 5 -19 10 -25 10 -5
0 -3 -5 5 -10z"/>
<path d="M4280 3352 c0 -7 -5 -11 -11 -9 -6 1 -14 -4 -16 -10 -7 -18 22 -27
44 -14 15 9 13 10 -9 5 -18 -4 -28 -2 -28 6 0 6 4 9 9 5 11 -6 26 13 17 22 -3
4 -6 1 -6 -5z"/>
<path d="M4396 3334 c-4 -9 -4 -19 -1 -22 3 -3 5 0 5 7 0 7 4 9 10 6 6 -3 7 1
4 9 -8 20 -10 20 -18 0z"/>
<path d="M4358 3313 c6 -2 9 -10 6 -15 -4 -7 -2 -8 5 -4 13 9 5 26 -12 25 -9
0 -8 -2 1 -6z"/>
<path d="M4230 3300 c0 -5 5 -10 10 -10 6 0 10 5 10 10 0 6 -4 10 -10 10 -5 0
-10 -4 -10 -10z"/>
<path d="M4299 3308 c-13 -44 -3 -64 21 -46 12 8 12 9 -2 5 -12 -4 -16 0 -15
14 1 11 9 19 20 19 11 0 15 -4 11 -12 -4 -7 -3 -8 5 -4 16 10 4 26 -20 26 -10
0 -19 -1 -20 -2z"/>
<path d="M4210 3280 c8 -5 20 -10 25 -10 6 0 3 5 -5 10 -8 5 -19 10 -25 10 -5
0 -3 -5 5 -10z"/>
<path d="M4265 3280 c3 -5 8 -10 11 -10 2 0 4 5 4 10 0 6 -5 10 -11 10 -5 0
-7 -4 -4 -10z"/>
<path d="M4198 3258 c-3 -7 -13 -13 -23 -13 -10 0 -19 -6 -21 -13 -1 -7 0 -8
3 -2 7 14 23 12 21 -2 -2 -8 7 -13 22 -13 15 0 24 5 23 13 -3 14 13 16 20 2 3
-6 4 -5 3 2 -2 7 -9 13 -17 13 -8 0 -13 -6 -11 -12 1 -7 -8 -13 -20 -13 -20 0
-21 1 -3 20 10 11 16 23 13 26 -3 3 -8 -1 -10 -8z"/>
<path d="M4251 3265 c0 -5 6 -18 13 -28 13 -17 14 -17 20 0 4 10 4 14 0 10 -4
-4 -13 1 -20 11 -7 9 -13 13 -13 7z"/>
<path d="M4300 3230 c-9 -6 -10 -10 -3 -10 6 0 15 5 18 10 8 12 4 12 -15 0z"/>
<path d="M4130 3200 c0 -5 5 -10 10 -10 6 0 10 5 10 10 0 6 -4 10 -10 10 -5 0
-10 -4 -10 -10z"/>
<path d="M4250 3205 c0 -7 30 -13 34 -7 3 4 -4 9 -15 9 -10 1 -19 0 -19 -2z"/>
<path d="M4075 3182 c11 -4 21 -15 23 -24 2 -12 -2 -16 -13 -12 -8 3 -15 10
-15 15 0 5 -6 9 -12 9 -7 -1 -2 -9 11 -20 27 -23 42 -18 37 13 -2 15 -11 23
-27 24 -21 2 -21 1 -4 -5z"/>
<path d="M4155 3179 c-4 -6 -4 -13 -1 -16 3 -4 6 -1 6 5 0 20 16 13 17 -7 2
-25 -28 -22 -44 4 -7 11 -12 16 -12 10 -1 -36 53 -55 69 -25 14 26 -20 54 -35
29z"/>
<path d="M4219 3188 c0 -2 -2 -14 -5 -28 -3 -18 -2 -21 5 -10 5 8 7 18 5 22
-3 4 4 8 16 8 13 0 19 -4 14 -12 -4 -7 -3 -8 5 -4 16 10 4 26 -20 26 -10 0
-19 -1 -20 -2z"/>
<path d="M3950 3160 c0 -5 5 -10 11 -10 5 0 7 5 4 10 -3 6 -8 10 -11 10 -2 0
-4 -4 -4 -10z"/>
<path d="M4016 3156 c4 -9 -2 -13 -18 -12 -16 1 -23 -5 -23 -17 0 -10 -7 -22
-15 -28 -13 -9 -13 -10 0 -6 8 2 22 1 30 -4 12 -5 16 -2 17 14 0 12 -1 16 -4
10 -7 -19 -19 -16 -20 6 -1 13 5 18 20 17 13 -1 23 6 25 17 2 9 -1 17 -7 17
-6 0 -8 -6 -5 -14z"/>
<path d="M3895 3139 c-3 -4 -3 -13 0 -21 4 -9 -2 -14 -16 -15 -18 -2 -19 0 -7
15 12 15 11 16 -4 3 -22 -17 -14 -32 15 -27 15 2 21 10 20 23 -1 13 4 19 17
19 11 0 20 -6 20 -13 0 -7 5 -13 10 -13 7 0 8 6 2 17 -10 17 -49 26 -57 12z"/>
<path d="M4031 3127 c-13 -21 -12 -21 5 -5 10 10 16 20 13 22 -3 3 -11 -5 -18
-17z"/>
<path d="M4060 3114 c0 -8 -4 -13 -8 -10 -4 2 -14 1 -22 -4 -11 -7 -9 -9 8 -7
23 1 54 37 32 37 -5 0 -10 -7 -10 -16z"/>
<path d="M4110 3126 c0 -2 7 -7 16 -10 8 -3 12 -2 9 4 -6 10 -25 14 -25 6z"/>
<path d="M4185 3120 c-3 -6 1 -7 9 -4 18 7 21 14 7 14 -6 0 -13 -4 -16 -10z"/>
<path d="M4094 3109 c1 -7 10 -13 19 -15 9 -1 15 2 11 7 -3 5 -9 7 -14 4 -4
-3 -11 0 -13 5 -3 6 -4 5 -3 -1z"/>
<path d="M4150 3109 c0 -5 5 -7 10 -4 6 3 10 8 10 11 0 2 -4 4 -10 4 -5 0 -10
-5 -10 -11z"/>
<path d="M3916 3093 c-6 -14 -5 -15 5 -6 7 7 10 15 7 18 -3 3 -9 -2 -12 -12z"/>
<path d="M3830 3091 c0 -9 30 -24 36 -18 2 1 -6 8 -16 15 -11 7 -20 8 -20 3z"/>
<path d="M3777 3073 c4 -11 3 -14 -5 -9 -17 10 -26 -19 -13 -41 9 -15 10 -13
5 10 -5 20 -3 27 7 25 7 -2 15 5 17 15 2 9 -1 17 -7 17 -6 0 -7 -7 -4 -17z"/>
<path d="M3888 3073 c6 -2 9 -10 6 -15 -4 -7 -2 -8 5 -4 13 9 5 26 -12 25 -9
0 -8 -2 1 -6z"/>
<path d="M3816 3061 c-13 -20 2 -46 27 -47 15 -1 24 2 22 7 -3 4 -13 5 -23 2
-13 -3 -18 2 -19 17 -2 18 1 19 13 10 8 -8 14 -8 14 -2 0 13 -28 24 -34 13z"/>
<path d="M3871 3044 c0 -11 3 -14 6 -6 3 7 2 16 -1 19 -3 4 -6 -2 -5 -13z"/>
<path d="M3785 3040 c-3 -5 -1 -10 4 -10 6 0 11 5 11 10 0 6 -2 10 -4 10 -3 0
-8 -4 -11 -10z"/>
<path d="M3693 3005 c0 -8 4 -15 9 -15 4 0 8 4 8 9 0 6 -4 12 -8 15 -5 3 -9
-1 -9 -9z"/>
<path d="M3795 3000 c27 -12 43 -12 25 0 -8 5 -22 9 -30 9 -10 0 -8 -3 5 -9z"/>
<path d="M3760 2996 c0 -2 7 -9 15 -16 9 -7 15 -8 15 -2 0 5 -7 12 -15 16 -8
3 -15 4 -15 2z"/>
<path d="M3670 2970 c0 -5 5 -10 10 -10 6 0 10 5 10 10 0 6 -4 10 -10 10 -5 0
-10 -4 -10 -10z"/>
<path d="M3650 2958 c0 -9 5 -20 10 -23 13 -8 13 5 0 25 -8 13 -10 13 -10 -2z"/>
<path d="M3780 2952 c0 -6 -8 -9 -17 -6 -14 5 -15 4 -4 -4 11 -8 10 -11 -5
-15 -14 -4 -15 -5 -3 -6 19 -1 45 26 35 36 -3 3 -6 1 -6 -5z"/>
<path d="M3628 2938 c-3 -7 -6 -17 -6 -23 -1 -5 -11 -13 -24 -17 -22 -7 -22
-7 2 -5 14 1 26 8 26 15 3 25 6 27 14 7 6 -13 9 -15 9 -5 0 8 -3 21 -8 28 -7
11 -9 11 -13 0z"/>
<path d="M3670 2910 c0 -5 5 -10 10 -10 6 0 10 5 10 10 0 6 -4 10 -10 10 -5 0
-10 -4 -10 -10z"/>
<path d="M3735 2900 c3 -5 8 -10 11 -10 2 0 4 5 4 10 0 6 -5 10 -11 10 -5 0
-7 -4 -4 -10z"/>
<path d="M3617 2878 c-7 -5 0 -6 17 -4 16 3 31 7 33 10 8 8 -37 2 -50 -6z"/>
<path d="M3690 2880 c0 -5 5 -10 10 -10 6 0 10 5 10 10 0 6 -4 10 -10 10 -5 0
-10 -4 -10 -10z"/>
<path d="M3563 2864 c9 -3 15 -9 12 -14 -3 -4 6 -15 20 -24 23 -15 25 -15 35
5 7 11 9 23 6 27 -3 3 -6 0 -6 -8 0 -10 -3 -10 -17 1 -15 11 -16 11 -5 -1 18
-21 14 -32 -7 -18 -11 7 -19 16 -18 22 1 5 -7 11 -18 12 -15 2 -16 2 -2 -2z"/>
<path d="M3659 2868 c-11 -40 1 -73 17 -47 4 7 3 9 -4 5 -7 -4 -10 1 -9 14 2
25 6 25 24 3 13 -16 13 -16 3 5 -9 18 -28 30 -31 20z"/>
<path d="M3550 2820 c0 -5 5 -10 10 -10 6 0 10 5 10 10 0 6 -4 10 -10 10 -5 0
-10 -4 -10 -10z"/>
<path d="M3510 2800 c-8 -5 -10 -10 -5 -10 6 0 17 5 25 10 8 5 11 10 5 10 -5
0 -17 -5 -25 -10z"/>
<path d="M3570 2799 c-12 -8 -10 -9 7 -4 19 5 22 3 17 -12 -5 -14 -4 -15 4 -3
19 25 0 38 -28 19z"/>
<path d="M3625 2800 c-3 -5 -1 -10 5 -10 6 0 8 -6 4 -12 -4 -7 -3 -9 1 -5 12
10 15 37 5 37 -5 0 -12 -4 -15 -10z"/>
<path d="M3544 2775 c11 -8 24 -15 30 -15 5 0 1 7 -10 15 -10 8 -23 14 -29 14
-5 0 -1 -6 9 -14z"/>
<path d="M3457 2759 c-3 -12 0 -22 9 -26 21 -8 47 5 38 19 -5 8 -2 9 9 5 10
-3 17 -2 17 4 0 6 -8 9 -17 7 -10 -2 -17 -10 -15 -16 1 -7 -7 -12 -17 -12 -14
0 -18 5 -14 20 3 11 3 20 0 20 -2 0 -7 -9 -10 -21z"/>
<path d="M3539 2742 c-1 -4 -1 -11 0 -15 1 -4 -4 -7 -11 -6 -7 1 -20 0 -28 -3
-8 -4 -24 -9 -34 -12 -18 -6 -18 -8 -3 -23 14 -14 19 -15 29 -4 11 10 10 11
-3 6 -10 -4 -20 -2 -24 4 -3 6 2 11 13 11 10 0 22 3 26 7 4 4 15 8 24 8 9 0
16 6 14 13 -3 18 31 11 40 -8 6 -11 7 -10 5 4 -2 18 -46 35 -48 18z"/>
<path d="M3550 2699 c0 -5 5 -7 10 -4 6 3 10 8 10 11 0 2 -4 4 -10 4 -5 0 -10
-5 -10 -11z"/>
<path d="M3510 2690 c0 -5 7 -10 16 -10 9 0 12 -5 8 -12 -4 -7 -3 -8 4 -4 16
10 15 14 -8 26 -14 7 -20 7 -20 0z"/>
<path d="M3457 2650 c3 -11 9 -20 15 -20 5 0 4 9 -2 20 -6 11 -12 20 -14 20
-2 0 -2 -9 1 -20z"/>
<path d="M3496 2662 c-9 -15 0 -46 15 -50 8 -2 10 0 4 5 -15 12 -19 47 -4 37
8 -4 10 -3 5 4 -8 14 -13 15 -20 4z"/>
<path d="M3520 2566 c0 -2 7 -7 16 -10 8 -3 12 -2 9 4 -6 10 -25 14 -25 6z"/>
<path d="M3515 2510 c3 -5 8 -10 11 -10 2 0 4 5 4 10 0 6 -5 10 -11 10 -5 0
-7 -4 -4 -10z"/>
<path d="M3530 2480 c0 -5 5 -10 10 -10 6 0 10 5 10 10 0 6 -4 10 -10 10 -5 0
-10 -4 -10 -10z"/>
<path d="M3498 2441 c4 -10 7 -11 10 -3 2 7 8 10 13 6 5 -3 9 -1 9 5 0 5 -9 9
-19 8 -12 -1 -17 -6 -13 -16z"/>
<path d="M3546 2452 c-2 -4 2 -16 10 -27 8 -10 14 -14 14 -8 0 7 -5 15 -11 19
-8 4 -7 9 2 15 10 6 10 9 2 9 -6 0 -14 -3 -17 -8z"/>
<path d="M3515 2419 c-19 -9 -19 -9 2 -5 16 3 21 -1 20 -15 -1 -11 -7 -19 -14
-19 -7 0 -13 -3 -13 -7 1 -12 26 -43 35 -43 5 0 0 9 -9 19 -12 13 -14 20 -5
23 14 5 23 45 11 51 -4 3 -16 0 -27 -4z"/>
<path d="M3550 2360 c0 -6 7 -10 15 -10 8 0 15 2 15 4 0 2 -7 6 -15 10 -8 3
-15 1 -15 -4z"/>
<path d="M3556 2314 c-9 -24 -2 -26 12 -4 7 11 8 20 3 20 -5 0 -12 -7 -15 -16z"/>
<path d="M3510 2310 c0 -5 7 -7 15 -4 8 4 15 8 15 10 0 2 -7 4 -15 4 -8 0 -15
-4 -15 -10z"/>
<path d="M3577 2303 c-10 -9 -9 -33 1 -33 4 0 8 9 8 20 0 23 0 22 -9 13z"/>
<path d="M3503 2266 c-2 -19 -1 -19 8 -3 11 19 30 23 27 5 -2 -7 8 -14 22 -15
24 -2 24 -2 2 5 -13 4 -23 12 -22 17 0 6 -8 10 -18 11 -12 1 -18 -6 -19 -20z"/>
<path d="M3517 2243 c-11 -11 -8 -23 6 -23 7 0 13 -8 14 -18 1 -13 -5 -18 -19
-18 -20 1 -33 -27 -22 -45 6 -11 34 0 34 13 0 6 -6 6 -14 -2 -12 -9 -15 -8
-13 10 1 14 7 20 22 18 15 -2 20 3 21 20 1 13 -5 26 -12 29 -8 3 -11 9 -8 14
6 11 0 12 -9 2z"/>
<path d="M3560 2215 c0 -5 5 -17 10 -25 5 -8 10 -10 10 -5 0 6 -5 17 -10 25
-5 8 -10 11 -10 5z"/>
<path d="M3485 2200 c-3 -6 1 -7 9 -4 18 7 21 14 7 14 -6 0 -13 -4 -16 -10z"/>
<path d="M3545 2160 c-3 -6 1 -7 9 -4 18 7 21 14 7 14 -6 0 -13 -4 -16 -10z"/>
<path d="M3550 2140 c-12 -7 -10 -9 7 -7 12 0 19 5 17 9 -6 10 -6 10 -24 -2z"/>
<path d="M3480 2116 c0 -9 -4 -14 -10 -11 -5 3 -10 1 -10 -4 0 -6 5 -11 10
-11 13 0 25 28 16 37 -3 4 -6 -1 -6 -11z"/>
<path d="M3517 2123 c-4 -3 -7 -11 -7 -17 0 -6 5 -5 12 2 6 6 9 14 7 17 -3 3
-9 2 -12 -2z"/>
<path d="M3547 2109 c-9 -6 -15 -14 -13 -18 3 -5 -6 -13 -21 -20 -14 -6 -23
-14 -20 -17 9 -9 57 28 50 39 -4 6 0 8 9 5 9 -4 15 0 15 8 0 8 -1 14 -1 14 -1
0 -9 -5 -19 -11z"/>
<path d="M3485 2080 c-3 -6 1 -7 9 -4 18 7 21 14 7 14 -6 0 -13 -4 -16 -10z"/>
<path d="M3471 2050 c0 -8 4 -22 9 -30 12 -18 12 -2 0 25 -6 13 -9 15 -9 5z"/>
<path d="M3510 2039 c-12 -8 -10 -9 9 -4 15 5 21 3 17 -3 -3 -6 -2 -13 3 -16
5 -4 8 2 7 11 -3 21 -17 26 -36 12z"/>
<path d="M3517 1973 c-10 -9 -9 -23 1 -23 5 0 9 7 9 15 0 17 -1 18 -10 8z"/>
<path d="M3398 1953 c7 -3 16 -2 19 1 4 3 -2 6 -13 5 -11 0 -14 -3 -6 -6z"/>
<path d="M3468 1951 c10 -6 10 -10 -2 -21 -9 -7 -13 -16 -10 -21 9 -15 -13
-10 -26 6 -7 8 -17 15 -23 15 -6 0 -1 -7 12 -16 21 -15 22 -18 7 -26 -9 -5
-14 -13 -11 -19 4 -5 -3 -9 -14 -9 -12 0 -20 5 -18 12 1 6 -6 14 -15 16 -10 2
-18 -1 -18 -7 0 -6 7 -8 15 -4 10 3 15 0 13 -8 -2 -9 6 -14 22 -14 16 0 24 5
22 14 -2 9 3 11 13 7 9 -3 14 -2 11 3 -3 5 1 12 10 15 9 4 14 9 11 13 -8 8 12
33 25 33 6 0 5 -7 -2 -15 -7 -9 -8 -15 -2 -15 19 0 21 30 2 40 -22 12 -41 13
-22 1z"/>
<path d="M3430 1940 c0 -5 5 -10 10 -10 6 0 10 5 10 10 0 6 -4 10 -10 10 -5 0
-10 -4 -10 -10z"/>
<path d="M3375 1929 c-4 -6 -5 -12 -2 -15 2 -3 7 2 10 11 7 17 1 20 -8 4z"/>
<path d="M3390 1900 c0 -5 5 -10 10 -10 6 0 10 5 10 10 0 6 -4 10 -10 10 -5 0
-10 -4 -10 -10z"/>
<path d="M3480 1890 c-9 -6 -10 -10 -3 -10 6 0 15 5 18 10 8 12 4 12 -15 0z"/>
<path d="M3456 1862 c-2 -4 0 -14 6 -22 8 -12 9 -12 5 2 -3 9 -1 19 6 22 9 3
9 5 0 5 -6 1 -14 -3 -17 -7z"/>
<path d="M3351 1840 c-9 -5 -4 -7 13 -7 29 0 32 2 13 10 -8 3 -20 2 -26 -3z"/>
<path d="M3434 1842 c3 -5 1 -12 -6 -14 -6 -2 -12 -15 -14 -29 -1 -13 0 -18 2
-11 3 6 11 9 17 5 7 -4 6 1 -2 10 -12 15 -11 17 3 17 19 0 21 16 4 26 -6 4 -8
3 -4 -4z"/>
<path d="M3316 1815 c-3 -9 -6 -22 -5 -28 0 -7 5 -1 10 12 5 13 8 26 5 28 -2
2 -6 -3 -10 -12z"/>
<path d="M3340 1801 c-10 -20 4 -41 17 -27 4 3 1 6 -5 6 -6 0 -9 7 -6 15 4 8
10 12 15 9 5 -3 9 0 9 5 0 18 -19 12 -30 -8z"/>
<path d="M3391 1808 c-1 -10 -5 -18 -11 -18 -5 0 -10 -5 -10 -12 0 -8 6 -7 16
4 9 9 14 22 11 30 -4 9 -6 7 -6 -4z"/>
<path d="M3272 1784 c-7 -8 -8 -14 -3 -14 10 0 25 19 20 25 -2 1 -10 -3 -17
-11z"/>
<path d="M3290 1760 c0 -5 5 -10 10 -10 6 0 10 5 10 10 0 6 -4 10 -10 10 -5 0
-10 -4 -10 -10z"/>
<path d="M3347 1747 c-16 -11 -16 -14 -2 -32 15 -19 16 -19 4 4 -10 21 -9 23
5 18 10 -4 15 -3 11 2 -3 5 1 12 7 14 7 3 8 6 2 6 -5 1 -18 -5 -27 -12z"/>
<path d="M3215 1740 c-3 -5 -3 -10 1 -10 4 0 -1 -7 -12 -16 -18 -14 -18 -15 4
-4 12 6 20 15 17 21 -4 5 4 9 16 9 21 0 21 -1 6 -18 -10 -10 -17 -22 -17 -26
0 -5 9 2 19 15 11 13 17 27 14 31 -6 11 -41 10 -48 -2z"/>
<path d="M3267 1714 c-14 -19 -15 -28 -7 -44 11 -21 30 -27 30 -9 0 5 -4 8 -9
5 -7 -5 -21 14 -21 29 0 11 36 -3 42 -17 4 -10 13 -18 20 -18 9 0 9 3 2 8 -6
4 -13 15 -17 24 -4 12 -12 15 -24 11 -16 -6 -16 -5 -4 10 8 10 12 19 10 21 -2
2 -12 -7 -22 -20z"/>
<path d="M3311 1730 c0 -8 4 -22 9 -30 12 -18 12 -2 0 25 -6 13 -9 15 -9 5z"/>
<path d="M3179 1683 c-1 -4 -1 -12 0 -17 1 -5 -5 -6 -14 -2 -9 3 -13 2 -10 -4
3 -6 1 -10 -6 -10 -7 0 -10 -3 -7 -6 10 -9 49 16 43 27 -4 5 3 9 15 9 12 0 18
-5 15 -10 -3 -6 1 -13 9 -16 9 -3 13 -10 10 -15 -3 -5 3 -6 12 -2 11 4 13 8 6
11 -7 2 -10 8 -7 13 4 5 -1 6 -10 3 -10 -4 -15 -2 -13 7 2 8 -7 15 -19 17 -13
2 -24 0 -24 -5z"/>
<path d="M3190 1640 c0 -6 7 -13 15 -16 8 -4 13 -9 11 -13 -3 -4 0 -13 5 -21
7 -11 8 -9 6 9 -2 14 -9 27 -15 29 -7 2 -10 8 -6 13 3 5 0 9 -5 9 -6 0 -11 -5
-11 -10z"/>
<path d="M3129 1609 c-6 -13 -6 -19 1 -19 5 0 10 6 10 13 0 7 9 13 20 14 11 1
18 -2 15 -7 -3 -5 3 -13 12 -19 16 -9 16 -12 3 -21 -9 -6 -10 -10 -3 -10 20 0
27 22 11 34 -8 6 -16 16 -16 21 -3 18 -42 13 -53 -6z"/>
<path d="M3254 1622 c3 -5 0 -12 -6 -15 -7 -2 -10 -7 -7 -11 3 -4 12 0 18 8 9
11 9 16 0 22 -7 4 -9 3 -5 -4z"/>
<path d="M3095 1599 c3 -15 0 -19 -11 -15 -9 3 -12 1 -9 -4 3 -6 1 -10 -6 -10
-7 0 -10 -3 -7 -6 11 -11 44 14 45 35 1 12 -2 21 -7 21 -5 0 -7 -9 -5 -21z"/>
<path d="M3150 1580 c0 -5 5 -10 10 -10 6 0 10 5 10 10 0 6 -4 10 -10 10 -5 0
-10 -4 -10 -10z"/>
<path d="M3036 1555 c-9 -26 -7 -32 5 -12 6 10 9 21 6 23 -2 3 -7 -2 -11 -11z"/>
<path d="M3110 1560 c0 -5 7 -7 15 -4 8 4 15 8 15 10 0 2 -7 4 -15 4 -8 0 -15
-4 -15 -10z"/>
<path d="M3011 1524 c24 -31 24 -31 39 -10 8 12 24 23 35 24 16 3 18 1 8 -9
-7 -7 -13 -18 -13 -23 0 -6 5 -3 11 6 14 25 12 33 -11 34 -12 1 -25 -8 -31
-18 -10 -19 -11 -19 -37 4 l-26 23 25 -31z"/>
<path d="M3130 1546 c0 -2 7 -9 15 -16 13 -11 14 -10 9 4 -5 14 -24 23 -24 12z"/>
<path d="M2775 1513 c1 -11 10 -17 22 -16 12 1 19 -5 20 -17 1 -11 -3 -19 -9
-17 -7 1 -13 -11 -14 -28 -2 -20 0 -25 5 -16 5 8 7 20 4 28 -3 8 0 13 8 11 9
-2 14 6 14 22 -1 20 -5 25 -22 23 -16 -2 -21 2 -17 12 4 8 2 15 -4 15 -6 0 -9
-8 -7 -17z"/>
<path d="M2920 1524 c0 -13 18 -39 24 -34 2 3 -2 14 -10 24 -8 11 -14 16 -14
10z"/>
<path d="M2976 1515 c-5 -15 30 -42 42 -31 3 3 0 6 -7 6 -7 0 -9 4 -6 10 3 6
-1 7 -10 4 -11 -5 -14 -2 -9 10 3 9 4 16 1 16 -3 0 -7 -7 -11 -15z"/>
<path d="M3117 1523 c-4 -3 -7 -11 -7 -17 0 -6 5 -5 12 2 6 6 9 14 7 17 -3 3
-9 2 -12 -2z"/>
<path d="M2720 1500 c0 -5 -8 -7 -17 -4 -17 5 -17 5 -1 -6 11 -6 15 -17 11
-28 -3 -9 -3 -14 1 -11 9 8 18 59 11 59 -3 0 -5 -4 -5 -10z"/>
<path d="M3055 1500 c-8 -13 3 -30 18 -29 9 0 9 2 0 5 -7 3 -9 12 -6 20 6 16
-3 19 -12 4z"/>
<path d="M3136 1501 c-4 -5 3 -7 14 -4 23 6 26 13 6 13 -8 0 -17 -4 -20 -9z"/>
<path d="M2841 1489 c0 -9 6 -22 14 -29 10 -9 15 -9 15 -1 0 6 -4 11 -9 11 -5
0 -12 8 -14 18 -4 14 -5 14 -6 1z"/>
<path d="M2870 1490 c0 -5 5 -10 10 -10 6 0 10 5 10 10 0 6 -4 10 -10 10 -5 0
-10 -4 -10 -10z"/>
<path d="M2911 1490 c0 -8 4 -22 9 -30 12 -18 12 -2 0 25 -6 13 -9 15 -9 5z"/>
<path d="M2748 1483 c7 -3 16 -2 19 1 4 3 -2 6 -13 5 -11 0 -14 -3 -6 -6z"/>
<path d="M2950 1480 c-13 -8 -12 -10 3 -10 9 0 17 5 17 10 0 12 -1 12 -20 0z"/>
<path d="M3090 1482 c0 -5 7 -9 15 -9 8 0 12 4 9 9 -3 4 -9 8 -15 8 -5 0 -9
-4 -9 -8z"/>
<path d="M2678 1473 c7 -3 16 -2 19 1 4 3 -2 6 -13 5 -11 0 -14 -3 -6 -6z"/>
<path d="M2778 1474 c-4 -3 -14 -7 -25 -8 -11 -2 -18 -11 -17 -25 0 -14 -5
-21 -18 -21 -10 0 -17 5 -15 11 1 6 -4 14 -10 16 -18 6 -16 -12 2 -27 23 -19
51 -8 47 19 -2 13 1 21 6 17 5 -3 18 1 28 9 10 8 16 15 13 15 -3 0 -8 -3 -11
-6z"/>
<path d="M3036 1467 c3 -10 9 -15 12 -12 3 3 0 11 -7 18 -10 9 -11 8 -5 -6z"/>
<path d="M2884 1459 c-4 -7 -3 -9 4 -5 5 3 13 0 15 -6 4 -9 6 -10 6 -1 1 17
-16 25 -25 12z"/>
<path d="M2976 1461 c-3 -5 2 -15 12 -22 16 -13 16 -12 3 4 -14 17 -13 18 5
15 10 -1 23 -7 27 -13 5 -6 7 -4 5 4 -5 16 -44 25 -52 12z"/>
<path d="M2765 1440 c-3 -5 -1 -10 4 -10 6 0 11 5 11 10 0 6 -2 10 -4 10 -3 0
-8 -4 -11 -10z"/>
<path d="M2830 1439 c0 -5 5 -7 10 -4 6 3 10 8 10 11 0 2 -4 4 -10 4 -5 0 -10
-5 -10 -11z"/>
<path d="M2940 1439 c0 -5 5 -7 10 -4 6 3 10 8 10 11 0 2 -4 4 -10 4 -5 0 -10
-5 -10 -11z"/>
<path d="M2677 1409 c12 -12 24 -21 27 -18 2 2 -8 13 -22 23 l-27 19 22 -24z"/>
<path d="M2750 1400 c0 -5 5 -10 11 -10 5 0 7 5 4 10 -3 6 -8 10 -11 10 -2 0
-4 -4 -4 -10z"/>
<path d="M2715 1380 c-4 -6 -4 -14 -1 -17 3 -4 6 -1 6 5 0 7 5 12 11 12 5 0 8
-4 4 -9 -3 -5 -1 -12 4 -15 5 -4 8 2 7 11 -3 21 -22 28 -31 13z"/>
<path d="M2699 1346 c-9 -6 -3 -49 7 -53 8 -3 11 -9 8 -14 -3 -5 0 -9 5 -9 15
0 14 20 -2 26 -7 2 -13 14 -14 25 -2 17 1 18 13 8 8 -6 17 -9 21 -5 3 3 1 6
-6 6 -7 0 -10 4 -7 8 4 7 -17 13 -25 8z"/>
<path d="M2735 1300 c3 -5 8 -10 11 -10 2 0 4 5 4 10 0 6 -5 10 -11 10 -5 0
-7 -4 -4 -10z"/>
<path d="M2734 1259 c-4 -8 -3 -9 4 -5 7 4 12 1 12 -8 0 -8 4 -17 9 -20 5 -4
7 3 4 14 -7 26 -19 34 -29 19z"/>
<path d="M2760 1200 c0 -5 5 -10 11 -10 5 0 7 5 4 10 -3 6 -8 10 -11 10 -2 0
-4 -4 -4 -10z"/>
<path d="M2746 1165 c-11 -8 -15 -15 -9 -15 6 0 16 7 23 15 16 19 11 19 -14 0z"/>
<path d="M2757 1144 c-4 -4 -7 -12 -7 -18 0 -6 5 -4 10 4 5 8 10 13 11 10 0
-3 2 -13 4 -23 4 -23 -26 -19 -41 7 -11 18 -11 18 -18 0 -4 -10 -4 -15 0 -11
4 4 14 -2 21 -13 11 -16 18 -18 33 -10 19 10 21 33 4 50 -6 6 -13 7 -17 4z"/>
<path d="M2733 1056 c-3 -5 1 -14 10 -21 9 -7 13 -16 9 -20 -4 -5 -1 -5 7 0
12 7 11 10 -2 20 -22 16 -21 20 3 22 13 1 18 -2 14 -9 -4 -7 -2 -8 5 -4 6 4 9
11 6 16 -7 11 -45 8 -52 -4z"/>
<path d="M2717 1017 c-4 -11 -3 -16 3 -12 6 3 10 -1 10 -9 0 -20 17 -29 26
-14 4 7 3 10 -1 5 -5 -4 -14 5 -20 20 -10 23 -12 25 -18 10z"/>
<path d="M2633 995 c0 -8 4 -12 9 -9 4 3 8 9 8 15 0 5 -4 9 -8 9 -5 0 -9 -7
-9 -15z"/>
<path d="M2665 987 c-12 -10 -14 -16 -7 -21 9 -5 9 -12 0 -25 -12 -20 -4 -56
11 -47 5 4 12 1 14 -4 3 -6 4 -5 3 2 -2 7 -9 12 -15 11 -6 -2 -11 7 -11 19 0
20 1 20 18 5 10 -10 22 -17 26 -17 5 0 -2 9 -15 20 -13 10 -20 19 -15 20 5 0
2 8 -5 17 -12 15 -12 16 4 10 10 -4 16 -3 12 2 -3 5 1 12 7 14 7 3 8 6 2 6 -5
1 -18 -5 -29 -12z"/>
<path d="M2701 968 c-7 -17 -5 -26 6 -35 17 -13 37 -8 28 7 -3 5 -12 7 -21 3
-12 -4 -13 -1 -4 21 5 14 7 26 4 26 -2 0 -9 -10 -13 -22z"/>
<path d="M2625 960 c3 -5 11 -10 16 -10 6 0 7 5 4 10 -3 6 -11 10 -16 10 -6 0
-7 -4 -4 -10z"/>
<path d="M2609 872 c12 -22 53 -22 59 -1 2 8 0 10 -5 4 -12 -15 -43 -15 -43 1
0 8 -5 14 -10 14 -7 0 -7 -6 -1 -18z"/>
<path d="M2590 863 c0 -6 8 -17 18 -24 16 -13 16 -13 2 6 -8 11 -16 22 -17 24
-2 2 -3 0 -3 -6z"/>
<path d="M2671 847 c-13 -21 -12 -21 5 -5 10 10 16 20 13 22 -3 3 -11 -5 -18
-17z"/>
<path d="M2570 843 c5 -2 8 -9 4 -14 -3 -5 3 -12 13 -15 10 -3 26 -10 36 -15
12 -6 24 -6 35 1 15 9 14 10 -5 5 -12 -3 -24 -1 -28 5 -3 5 -15 10 -26 10 -10
0 -18 5 -16 11 1 6 -4 13 -11 15 -7 1 -8 0 -2 -3z"/>
<path d="M2630 830 c0 -5 5 -10 10 -10 6 0 10 5 10 10 0 6 -4 10 -10 10 -5 0
-10 -4 -10 -10z"/>
<path d="M2539 803 c-1 -5 -1 -12 0 -17 1 -5 -5 -6 -14 -2 -9 3 -13 2 -10 -4
3 -6 1 -10 -6 -10 -7 0 -10 -3 -7 -6 10 -10 49 16 42 28 -5 7 -1 9 9 5 10 -3
17 -2 17 3 0 12 -29 14 -31 3z"/>
<path d="M2579 783 c-1 -5 -1 -12 0 -17 1 -5 -4 -6 -12 -3 -8 3 -20 1 -28 -4
-9 -5 -4 -7 16 -5 17 1 29 8 28 14 -2 7 6 12 16 12 13 0 18 -6 16 -17 -1 -10
0 -12 2 -5 3 7 10 9 16 5 7 -4 6 1 -2 10 -13 17 -50 24 -52 10z"/>
<path d="M2464 731 c-10 -17 -21 -28 -26 -25 -4 3 -8 0 -8 -5 0 -18 19 -12 30
9 6 11 14 19 18 19 19 -3 32 2 32 12 0 8 -6 7 -17 -2 -15 -12 -16 -12 -10 4
10 26 0 20 -19 -12z"/>
<path d="M2590 745 c0 -5 5 -17 10 -25 5 -8 10 -10 10 -5 0 6 -5 17 -10 25 -5
8 -10 11 -10 5z"/>
<path d="M2521 724 c0 -11 3 -14 6 -6 3 7 2 16 -1 19 -3 4 -6 -2 -5 -13z"/>
<path d="M2550 730 c0 -6 7 -10 15 -10 8 0 15 2 15 4 0 2 -7 6 -15 10 -8 3
-15 1 -15 -4z"/>
<path d="M2500 712 c0 -6 -8 -9 -17 -6 -15 5 -16 4 -3 -5 16 -11 40 3 27 16
-4 3 -7 1 -7 -5z"/>
<path d="M2536 702 c-9 -15 0 -46 15 -50 8 -2 10 0 4 5 -5 4 -11 17 -13 28 -3
20 -2 20 13 1 8 -11 15 -15 15 -9 0 15 -27 36 -34 25z"/>
<path d="M2575 700 c3 -5 8 -10 11 -10 2 0 4 5 4 10 0 6 -5 10 -11 10 -5 0 -7
-4 -4 -10z"/>
<path d="M2511 674 c0 -11 3 -14 6 -6 3 7 2 16 -1 19 -3 4 -6 -2 -5 -13z"/>
<path d="M2380 640 c-8 -5 -10 -10 -5 -10 6 0 17 5 25 10 8 5 11 10 5 10 -5 0
-17 -5 -25 -10z"/>
<path d="M2475 641 c3 -2 -4 -11 -15 -18 -23 -16 -14 -45 14 -49 9 -1 14 1 11
6 -3 4 2 11 11 14 9 3 12 11 8 18 -5 8 -2 9 12 4 14 -5 16 -4 7 5 -12 12 -37
3 -29 -10 3 -4 -4 -13 -15 -19 -17 -11 -20 -10 -17 5 2 10 14 26 28 35 23 16
23 17 2 15 -11 0 -19 -3 -17 -6z"/>
<path d="M2395 620 c-4 -6 -4 -14 -1 -17 3 -4 6 -1 6 5 0 20 16 13 17 -7 1
-13 -5 -18 -20 -17 -17 1 -22 -5 -22 -24 0 -26 26 -36 31 -12 1 7 0 8 -3 2 -8
-16 -19 -12 -20 9 -1 13 5 18 20 17 17 -1 22 5 22 23 0 26 -19 39 -30 21z"/>
<path d="M2361 604 c0 -11 3 -14 6 -6 3 7 2 16 -1 19 -3 4 -6 -2 -5 -13z"/>
<path d="M2290 560 c-8 -5 -10 -10 -5 -10 6 0 17 5 25 10 8 5 11 10 5 10 -5 0
-17 -5 -25 -10z"/>
<path d="M2345 560 c-3 -5 -1 -10 4 -10 6 0 11 5 11 10 0 6 -2 10 -4 10 -3 0
-8 -4 -11 -10z"/>
<path d="M2430 555 c0 -8 2 -15 4 -15 2 0 6 7 10 15 3 8 1 15 -4 15 -6 0 -10
-7 -10 -15z"/>
<path d="M795 540 c-3 -5 -1 -10 4 -10 6 0 11 5 11 10 0 6 -2 10 -4 10 -3 0
-8 -4 -11 -10z"/>
<path d="M2310 540 c0 -6 4 -9 9 -5 5 3 11 -5 13 -17 2 -13 9 -22 16 -20 6 1
12 -5 12 -13 0 -8 5 -15 10 -15 7 0 7 7 0 20 -6 11 -15 18 -20 15 -5 -3 -10 5
-12 17 -3 22 -28 39 -28 18z"/>
<path d="M2270 530 c8 -5 20 -10 25 -10 6 0 3 5 -5 10 -8 5 -19 10 -25 10 -5
0 -3 -5 5 -10z"/>
<path d="M2362 524 c10 -10 20 -16 22 -13 3 3 -5 11 -17 18 -21 13 -21 12 -5
-5z"/>
<path d="M835 520 c-3 -5 -1 -10 4 -10 6 0 11 5 11 10 0 6 -2 10 -4 10 -3 0
-8 -4 -11 -10z"/>
<path d="M934 519 c-3 -6 -2 -15 4 -21 6 -6 12 -6 17 3 6 8 4 10 -5 4 -10 -6
-12 -4 -7 8 7 19 2 23 -9 6z"/>
<path d="M2406 522 c-3 -5 1 -9 9 -9 8 0 15 4 15 9 0 4 -4 8 -9 8 -6 0 -12 -4
-15 -8z"/>
<path d="M975 511 c-9 -15 15 -25 28 -12 9 9 7 10 -7 5 -13 -5 -17 -4 -12 4 4
7 5 12 2 12 -3 0 -7 -4 -11 -9z"/>
<path d="M2259 502 c-1 -4 -1 -10 -1 -14 1 -3 -5 -9 -13 -12 -8 -3 -15 0 -15
6 0 6 -3 8 -6 5 -4 -4 -2 -13 5 -21 9 -11 8 -15 -4 -20 -9 -3 -13 -10 -10 -16
3 -5 -3 -10 -15 -10 -12 0 -19 4 -15 9 5 10 -25 31 -42 31 -4 -1 2 -6 14 -13
12 -7 22 -16 22 -22 1 -5 10 -10 21 -10 11 0 20 5 21 10 0 6 7 14 15 18 8 5
12 12 9 18 -6 9 8 13 35 9 10 -1 9 3 -5 14 -20 15 -20 15 3 13 12 -1 22 -7 22
-14 0 -16 16 -17 26 -1 4 6 3 8 -4 4 -5 -3 -12 -1 -14 6 -5 13 -47 22 -49 10z"/>
<path d="M910 482 c0 -5 7 -9 15 -9 8 0 12 4 9 9 -3 4 -9 8 -15 8 -5 0 -9 -4
-9 -8z"/>
<path d="M957 483 c-4 -3 -7 -11 -7 -17 0 -6 5 -5 12 2 6 6 9 14 7 17 -3 3 -9
2 -12 -2z"/>
<path d="M990 470 c-14 -11 -21 -20 -17 -20 5 0 20 9 34 20 14 11 22 20 17 20
-5 0 -20 -9 -34 -20z"/>
<path d="M1015 461 c-3 -5 0 -13 6 -17 8 -4 9 -3 5 4 -5 8 1 12 14 12 13 0 19
-4 14 -12 -4 -7 -3 -8 5 -4 16 10 4 26 -19 26 -10 0 -21 -4 -25 -9z"/>
<path d="M2190 460 c0 -5 5 -10 10 -10 6 0 10 5 10 10 0 6 -4 10 -10 10 -5 0
-10 -4 -10 -10z"/>
<path d="M2335 460 c3 -5 8 -10 11 -10 2 0 4 5 4 10 0 6 -5 10 -11 10 -5 0 -7
-4 -4 -10z"/>
<path d="M1081 453 c-1 -17 16 -25 25 -12 4 7 3 9 -4 5 -5 -3 -13 0 -15 6 -4
9 -6 10 -6 1z"/>
<path d="M2260 450 c0 -5 0 -13 1 -16 0 -4 -12 -15 -28 -25 -15 -10 -23 -19
-18 -19 19 1 49 30 52 50 1 11 1 20 -2 20 -3 0 -5 -4 -5 -10z"/>
<path d="M2286 443 c-4 -9 -2 -21 4 -27 8 -8 9 -6 4 8 -5 13 -4 17 4 12 8 -5
10 -2 6 8 -8 20 -10 20 -18 -1z"/>
<path d="M1130 421 c0 -6 4 -13 10 -16 6 -3 7 1 4 9 -7 18 -14 21 -14 7z"/>
<path d="M2052 404 c-7 -8 -8 -14 -3 -14 10 0 25 19 20 25 -2 1 -10 -3 -17
-11z"/>
<path d="M2150 410 c0 -5 5 -10 11 -10 5 0 7 5 4 10 -3 6 -8 10 -11 10 -2 0
-4 -4 -4 -10z"/>
<path d="M1230 391 c-8 -16 -7 -19 8 -17 9 2 20 -4 24 -13 6 -12 7 -12 5 4 -2
11 -9 19 -15 18 -16 -4 -15 14 1 20 9 4 9 6 0 6 -7 1 -17 -8 -23 -18z"/>
<path d="M2016 395 c-5 -14 30 -42 41 -32 2 3 -5 8 -16 12 -12 4 -18 12 -14
21 3 7 3 14 0 14 -3 0 -7 -7 -11 -15z"/>
<path d="M1195 390 c3 -5 8 -10 11 -10 2 0 4 5 4 10 0 6 -5 10 -11 10 -5 0 -7
-4 -4 -10z"/>
<path d="M1977 384 c-9 -10 12 -46 24 -39 5 4 9 12 9 18 0 8 -3 8 -9 -1 -7
-11 -9 -11 -14 2 -3 8 -1 17 6 20 7 3 8 5 1 5 -6 1 -14 -2 -17 -5z"/>
<path d="M2074 366 c3 -16 8 -31 11 -35 3 -3 4 7 1 23 -3 16 -8 31 -11 35 -3
3 -4 -7 -1 -23z"/>
<path d="M2170 383 c5 -2 8 -9 5 -13 -3 -5 -1 -11 4 -14 5 -4 8 2 7 11 -2 9
-8 18 -15 19 -6 1 -7 0 -1 -3z"/>
<path d="M1910 370 c-13 -8 -12 -10 3 -10 9 0 17 5 17 10 0 12 -1 12 -20 0z"/>
<path d="M1951 370 c0 -8 4 -22 9 -30 12 -18 12 -2 0 25 -6 13 -9 15 -9 5z"/>
<path d="M1315 360 c-13 -6 -15 -9 -5 -9 8 0 22 4 30 9 18 12 2 12 -25 0z"/>
<path d="M1871 354 c0 -11 3 -14 6 -6 3 7 2 16 -1 19 -3 4 -6 -2 -5 -13z"/>
<path d="M1428 353 c6 -2 10 -9 7 -14 -4 -5 2 -6 12 -2 17 6 17 5 -1 -15 -11
-12 -15 -22 -10 -22 5 0 15 9 21 20 11 16 10 21 -6 30 -11 5 -23 10 -28 9 -4
0 -2 -3 5 -6z"/>
<path d="M1815 351 c-7 -12 12 -24 25 -16 6 3 10 12 9 18 0 9 -2 9 -6 0 -2 -7
-9 -13 -14 -13 -6 0 -7 5 -4 10 3 6 4 10 1 10 -3 0 -7 -4 -11 -9z"/>
<path d="M2108 353 c7 -3 16 -2 19 1 4 3 -2 6 -13 5 -11 0 -14 -3 -6 -6z"/>
<path d="M1513 320 c0 -23 3 -28 9 -16 5 9 5 23 0 32 -6 12 -9 7 -9 -16z"/>
<path d="M1766 325 c9 -14 25 -25 36 -25 10 0 17 -4 13 -9 -3 -6 5 -15 17 -21
22 -11 22 -11 3 5 -11 9 -18 19 -15 23 3 4 -5 8 -18 10 -12 2 -20 7 -18 11 3
4 -4 13 -15 19 -19 12 -19 12 -3 -13z"/>
<path d="M1896 338 c3 -5 15 -7 26 -5 14 4 18 2 14 -9 -3 -8 -2 -13 3 -10 5 3
12 -1 15 -10 3 -8 10 -13 15 -10 5 4 12 1 14 -4 4 -7 5 -6 3 1 -1 6 -6 10 -11
10 -6 0 -15 10 -21 21 -6 12 -23 22 -38 24 -16 2 -24 -1 -20 -8z"/>
<path d="M2015 341 c-3 -5 0 -13 6 -17 8 -5 9 -3 5 5 -6 8 -2 11 10 9 11 -2
22 -10 26 -18 6 -11 7 -10 5 4 -2 20 -42 33 -52 17z"/>
<path d="M2136 341 c-4 -5 3 -7 14 -4 23 6 26 13 6 13 -8 0 -17 -4 -20 -9z"/>
<path d="M1668 333 c6 -2 18 -2 25 0 6 3 1 5 -13 5 -14 0 -19 -2 -12 -5z"/>
<path d="M1480 320 c0 -5 5 -10 10 -10 6 0 10 5 10 10 0 6 -4 10 -10 10 -5 0
-10 -4 -10 -10z"/>
<path d="M1620 320 c-12 -7 -10 -9 8 -7 12 0 22 5 22 9 0 11 -12 10 -30 -2z"/>
<path d="M1730 326 c0 -2 7 -7 16 -10 8 -3 12 -2 9 4 -6 10 -25 14 -25 6z"/>
<path d="M1851 325 c4 -3 19 -8 35 -11 16 -3 26 -2 23 1 -4 3 -19 8 -35 11
-16 3 -26 2 -23 -1z"/>
<path d="M1985 320 c3 -5 11 -10 16 -10 6 0 7 5 4 10 -3 6 -11 10 -16 10 -6 0
-7 -4 -4 -10z"/>
<path d="M2095 320 c-3 -6 1 -7 9 -4 18 7 21 14 7 14 -6 0 -13 -4 -16 -10z"/>
<path d="M1590 315 c0 -5 5 -17 10 -25 5 -8 10 -10 10 -5 0 6 -5 17 -10 25 -5
8 -10 11 -10 5z"/>
<path d="M1660 305 c-7 -9 -8 -15 -2 -15 5 0 12 7 16 15 3 8 4 15 2 15 -2 0
-9 -7 -16 -15z"/>
<path d="M1696 309 c3 -5 14 -9 25 -9 10 0 18 -6 17 -12 -2 -7 3 -13 11 -13 8
0 15 6 17 13 1 7 0 8 -3 2 -7 -14 -24 -13 -20 1 1 7 -10 15 -26 20 -16 4 -25
4 -21 -2z"/>
<path d="M1845 305 c11 -9 19 -18 17 -21 -2 -2 -1 -10 1 -17 3 -6 4 -2 4 11
-1 13 -11 28 -22 33 -20 10 -20 10 0 -6z"/>
<path d="M2015 299 c-4 -6 -5 -12 -2 -15 2 -3 7 2 10 11 7 17 1 20 -8 4z"/>
<path d="M1630 286 c0 -8 4 -17 9 -20 5 -4 7 3 4 14 -6 23 -13 26 -13 6z"/>
<path d="M1672 284 c-7 -8 -8 -14 -3 -14 10 0 25 19 20 25 -2 1 -10 -3 -17
-11z"/>
<path d="M1881 284 c0 -11 3 -14 6 -6 3 7 2 16 -1 19 -3 4 -6 -2 -5 -13z"/>
<path d="M1912 288 c5 -13 38 -20 38 -8 0 4 -7 11 -16 14 -22 9 -26 8 -22 -6z"/>
<path d="M1560 280 c-12 -7 -10 -9 8 -7 12 0 22 5 22 9 0 11 -12 10 -30 -2z"/>
<path d="M1707 279 c7 -9 10 -19 6 -22 -3 -4 -1 -7 5 -7 17 0 15 16 -5 31 -16
12 -17 12 -6 -2z"/>
<path d="M1787 279 c7 -9 10 -19 6 -22 -3 -4 -1 -7 5 -7 17 0 15 16 -5 31 -16
12 -17 12 -6 -2z"/>
</g>
</svg>
